<?xml version="1.0" encoding="iso-8859-1"?>
<!-- Generator: Adobe Illustrator 25.1.0, SVG Export Plug-In . SVG Version: 6.00 Build 0)  -->
<svg version="1.1" id="LAMPION_ARRONDI" xmlns="http://www.w3.org/2000/svg" xmlns:xlink="http://www.w3.org/1999/xlink" x="0px"
	 y="0px" viewBox="0 0 987.849 6684.36" style="enable-background:new 0 0 987.849 6684.36;" xml:space="preserve">
<g id="FILS">
	<polyline style="fill:none;stroke:#000000;stroke-width:3;stroke-miterlimit:10;" points="342.091,5519.504 493.925,5156.312 
		646.777,5519.504 	"/>
	<polyline style="fill:none;stroke:#000000;stroke-width:3;stroke-miterlimit:10;" points="545.232,5500.659 493.925,5156.312 
		493.925,0 	"/>
</g>
<g id="DECORATION_BAS">
	<g id="RUBAN_BACK">
		<linearGradient id="SVGID_1_" gradientUnits="userSpaceOnUse" x1="474.874" y1="6584.1841" x2="490.9689" y2="6584.1841">
			<stop  offset="0" style="stop-color:#CC6600"/>
			<stop  offset="1" style="stop-color:#993300"/>
		</linearGradient>
		<path style="fill:url(#SVGID_1_);" d="M476.777,6492.008c0,0-1.903,161.309-1.903,174.198c0,12.888,16.095,14.177,16.095,0
			c0-14.177-0.236-174.198-0.236-174.198H476.777z"/>
		<linearGradient id="SVGID_2_" gradientUnits="userSpaceOnUse" x1="461.9933" y1="6583.1841" x2="478.0882" y2="6583.1841">
			<stop  offset="0" style="stop-color:#CC6600"/>
			<stop  offset="1" style="stop-color:#993300"/>
		</linearGradient>
		<path style="fill:url(#SVGID_2_);" d="M463.896,6491.008c0,0-1.903,161.309-1.903,174.198c0,12.888,16.095,14.177,16.095,0
			c0-14.177-0.236-174.198-0.236-174.198H463.896z"/>
		<linearGradient id="SVGID_3_" gradientUnits="userSpaceOnUse" x1="489.4255" y1="6583.2085" x2="505.5204" y2="6583.2085">
			<stop  offset="0" style="stop-color:#CC6600"/>
			<stop  offset="1" style="stop-color:#993300"/>
		</linearGradient>
		<path style="fill:url(#SVGID_3_);" d="M491.328,6491.032c0,0-1.903,161.309-1.903,174.198c0,12.888,16.095,14.177,16.095,0
			c0-14.177-0.236-174.198-0.236-174.198H491.328z"/>
		<linearGradient id="SVGID_4_" gradientUnits="userSpaceOnUse" x1="449.4903" y1="6583.2085" x2="465.5852" y2="6583.2085">
			<stop  offset="0" style="stop-color:#CC6600"/>
			<stop  offset="1" style="stop-color:#993300"/>
		</linearGradient>
		<path style="fill:url(#SVGID_4_);" d="M451.393,6491.032c0,0-1.903,161.309-1.903,174.198c0,12.888,16.095,14.177,16.095,0
			c0-14.177-0.236-174.198-0.236-174.198H451.393z"/>
		<linearGradient id="SVGID_5_" gradientUnits="userSpaceOnUse" x1="436.1258" y1="6581.2578" x2="452.2208" y2="6581.2578">
			<stop  offset="0" style="stop-color:#CC6600"/>
			<stop  offset="1" style="stop-color:#993300"/>
		</linearGradient>
		<path style="fill:url(#SVGID_5_);" d="M438.028,6489.081c0,0-1.903,161.309-1.903,174.198c0,12.888,16.095,14.177,16.095,0
			c0-14.177-0.236-174.198-0.236-174.198H438.028z"/>
		<linearGradient id="SVGID_6_" gradientUnits="userSpaceOnUse" x1="422.4308" y1="6579.3066" x2="438.5257" y2="6579.3066">
			<stop  offset="0" style="stop-color:#CC6600"/>
			<stop  offset="1" style="stop-color:#993300"/>
		</linearGradient>
		<path style="fill:url(#SVGID_6_);" d="M424.333,6487.13c0,0-1.903,161.309-1.903,174.197s16.095,14.177,16.095,0
			c0-14.177-0.236-174.197-0.236-174.197H424.333z"/>
		<linearGradient id="SVGID_7_" gradientUnits="userSpaceOnUse" x1="408.7817" y1="6574.8496" x2="427.1606" y2="6574.8496">
			<stop  offset="0" style="stop-color:#CC6600"/>
			<stop  offset="1" style="stop-color:#993300"/>
		</linearGradient>
		<path style="fill:url(#SVGID_7_);" d="M413.205,6482.634c0,0-4.236,161.263-4.422,174.149s15.888,14.42,16.093,0.245
			c0.205-14.175,2.284-174.182,2.284-174.182L413.205,6482.634z"/>
		<linearGradient id="SVGID_8_" gradientUnits="userSpaceOnUse" x1="504.3062" y1="6583.2085" x2="520.4011" y2="6583.2085">
			<stop  offset="0" style="stop-color:#CC6600"/>
			<stop  offset="1" style="stop-color:#993300"/>
		</linearGradient>
		<path style="fill:url(#SVGID_8_);" d="M506.209,6491.032c0,0-1.903,161.309-1.903,174.198c0,12.888,16.095,14.177,16.095,0
			c0-14.177-0.236-174.198-0.236-174.198H506.209z"/>
		<linearGradient id="SVGID_9_" gradientUnits="userSpaceOnUse" x1="516.4011" y1="6582.2329" x2="532.496" y2="6582.2329">
			<stop  offset="0" style="stop-color:#CC6600"/>
			<stop  offset="1" style="stop-color:#993300"/>
		</linearGradient>
		<path style="fill:url(#SVGID_9_);" d="M518.304,6490.057c0,0-1.903,161.309-1.903,174.198c0,12.888,16.095,14.177,16.095,0
			c0-14.177-0.236-174.198-0.236-174.198H518.304z"/>
		<linearGradient id="SVGID_10_" gradientUnits="userSpaceOnUse" x1="531.6345" y1="6581.2578" x2="547.7294" y2="6581.2578">
			<stop  offset="0" style="stop-color:#CC6600"/>
			<stop  offset="1" style="stop-color:#993300"/>
		</linearGradient>
		<path style="fill:url(#SVGID_10_);" d="M533.537,6489.081c0,0-1.903,161.309-1.903,174.198c0,12.888,16.095,14.177,16.095,0
			c0-14.177-0.236-174.198-0.236-174.198H533.537z"/>
		<linearGradient id="SVGID_11_" gradientUnits="userSpaceOnUse" x1="547.7294" y1="6580.2217" x2="564.397" y2="6580.2217">
			<stop  offset="0" style="stop-color:#CC6600"/>
			<stop  offset="1" style="stop-color:#993300"/>
		</linearGradient>
		<path style="fill:url(#SVGID_11_);" d="M547.729,6488.208c0,0,0.389,161.32,0.572,174.207s16.295,13.935,16.093-0.24
			c-0.201-14.176-2.71-174.176-2.71-174.176L547.729,6488.208z"/>
		<linearGradient id="SVGID_12_" gradientUnits="userSpaceOnUse" x1="561.6111" y1="6577.269" x2="579.3596" y2="6577.269">
			<stop  offset="0" style="stop-color:#CC6600"/>
			<stop  offset="1" style="stop-color:#993300"/>
		</linearGradient>
		<path style="fill:url(#SVGID_12_);" d="M561.611,6485.331c0,0,1.39,161.314,1.653,174.2c0.263,12.885,16.381,13.828,16.091-0.346
			c-0.289-14.174-3.791-174.154-3.791-174.154L561.611,6485.331z"/>
		<linearGradient id="SVGID_13_" gradientUnits="userSpaceOnUse" x1="576.4863" y1="6569.4419" x2="595.1916" y2="6569.4419">
			<stop  offset="0" style="stop-color:#CC6600"/>
			<stop  offset="1" style="stop-color:#993300"/>
		</linearGradient>
		<path style="fill:url(#SVGID_13_);" d="M576.486,6477.574c0,0,2.276,161.304,2.61,174.188
			c0.334,12.883,16.456,13.733,16.089-0.438c-0.367-14.172-4.747-174.129-4.747-174.129L576.486,6477.574z"/>
		<linearGradient id="SVGID_14_" gradientUnits="userSpaceOnUse" x1="395.4671" y1="6568.9097" x2="414.2086" y2="6568.9097">
			<stop  offset="0" style="stop-color:#CC6600"/>
			<stop  offset="1" style="stop-color:#993300"/>
		</linearGradient>
		<path style="fill:url(#SVGID_14_);" d="M400.254,6476.69c0,0-4.571,161.253-4.785,174.139
			c-0.213,12.887,15.858,14.455,16.093,0.28c0.235-14.175,2.647-174.176,2.647-174.176L400.254,6476.69z"/>
	</g>
	<linearGradient id="SHADOW_RUBANS_2_" gradientUnits="userSpaceOnUse" x1="495.3294" y1="6476.6899" x2="495.3294" y2="6676.3525">
		<stop  offset="0" style="stop-color:#000000"/>
		<stop  offset="1" style="stop-color:#663300;stop-opacity:0"/>
	</linearGradient>
	<path id="SHADOW_RUBANS" style="opacity:0.5;fill:url(#SHADOW_RUBANS_2_);" d="M590.438,6477.194l-13.952,0.38
		c0,0,1.445,102.406,2.201,150.544c-1.097-50.552-3.123-143.087-3.123-143.087l-13.954,0.3c0,0,0.008,0.938,0.023,2.668
		l-13.905,0.208c0,0-0.083,1.604-0.23,4.497c-0.003-2.338-0.005-3.623-0.005-3.623h-13.957c0,0-0.608,51.543-1.136,98.686
		c-0.065-46.896-0.14-97.71-0.14-97.71h-13.957c0,0-0.004,0.338-0.011,0.976h-12.083c0,0-0.393,33.312-0.822,70.868
		c-0.053-37.565-0.102-70.868-0.102-70.868h-13.957c0,0-0.23,19.503-0.53,45.486c-0.037-25.498-0.065-44.511-0.065-44.511h-12.879
		c-0.001-0.655-0.001-1-0.001-1h-13.957c0,0,0,0.011,0,0.024h-11.907c-0.002-1.269-0.003-1.951-0.003-1.951h-13.692
		c-0.002-1.269-0.003-1.951-0.003-1.951h-11.185c0.036-2.757,0.056-4.283,0.056-4.283l-13.038-0.198
		c0.055-3.659,0.086-5.715,0.086-5.715l-13.955-0.243c0,0-4.571,161.253-4.785,174.139c-0.16,9.659,8.829,12.959,13.441,8.037
		c1.124,8.347,9.736,10.668,13.826,5.333c1.726,7.98,10.549,9.692,14.202,3.656c2.477,6.365,10.016,7.485,13.492,2.265
		c2.631,6.161,10.127,7.108,13.488,1.761c3.139,4.444,9.313,4.748,12.368,0.183c3.4,6.051,11.93,5.912,14.144-1.786
		c3.054,6.838,12.183,7.051,14.529-0.897c2.358,6.918,10.517,8.097,13.927,2.265c4.058,4.657,11.806,3.571,13.336-4.432
		c2.21,6.945,10.176,8.303,13.749,2.864c6.978,3.496,17.384,2.113,18.31-5.731c3.566,8.019,15.323,6.967,15.076-5.161
		c-0.023-1.108-0.065-3.106-0.124-5.85c1.552,11.347,16.305,11.555,15.953-2.012
		C594.818,6637.151,590.438,6477.194,590.438,6477.194z"/>
	<g id="RUBAN_FRONT">
		<linearGradient id="SVGID_15_" gradientUnits="userSpaceOnUse" x1="580.7191" y1="6574.7642" x2="600.3823" y2="6574.7642">
			<stop  offset="0" style="stop-color:#FFCC00"/>
			<stop  offset="1" style="stop-color:#FF9933"/>
		</linearGradient>
		<path style="fill:url(#SVGID_15_);" d="M580.719,6480.597c0,0,2.393,165.343,2.744,178.549
			c0.351,13.207,17.299,14.078,16.913-0.449s-4.99-178.49-4.99-178.49L580.719,6480.597z"/>
		<linearGradient id="SVGID_16_" gradientUnits="userSpaceOnUse" x1="387.2764" y1="6574.2188" x2="406.9776" y2="6574.2188">
			<stop  offset="0" style="stop-color:#FFCC00"/>
			<stop  offset="1" style="stop-color:#FF9933"/>
		</linearGradient>
		<path style="fill:url(#SVGID_16_);" d="M392.308,6479.69c0,0-4.806,165.291-5.03,178.5c-0.224,13.209,16.67,14.817,16.917,0.287
			c0.247-14.53,2.782-178.538,2.782-178.538L392.308,6479.69z"/>
		<linearGradient id="SVGID_17_" gradientUnits="userSpaceOnUse" x1="403.3753" y1="6580.3081" x2="422.6953" y2="6580.3081">
			<stop  offset="0" style="stop-color:#FFCC00"/>
			<stop  offset="1" style="stop-color:#FF9933"/>
		</linearGradient>
		<path style="fill:url(#SVGID_17_);" d="M408.025,6485.783c0,0-4.453,165.301-4.648,178.51
			c-0.196,13.209,16.702,14.781,16.917,0.251c0.216-14.531,2.401-178.543,2.401-178.543L408.025,6485.783z"/>
		<linearGradient id="SVGID_18_" gradientUnits="userSpaceOnUse" x1="421.5423" y1="6584.876" x2="438.4615" y2="6584.876">
			<stop  offset="0" style="stop-color:#FFCC00"/>
			<stop  offset="1" style="stop-color:#FF9933"/>
		</linearGradient>
		<path style="fill:url(#SVGID_18_);" d="M423.542,6490.392c0,0-2,165.349-2,178.56s16.919,14.532,16.919,0
			c0-14.532-0.248-178.56-0.248-178.56H423.542z"/>
		<linearGradient id="SVGID_19_" gradientUnits="userSpaceOnUse" x1="439.4781" y1="6586.876" x2="456.3972" y2="6586.876">
			<stop  offset="0" style="stop-color:#FFCC00"/>
			<stop  offset="1" style="stop-color:#FF9933"/>
		</linearGradient>
		<path style="fill:url(#SVGID_19_);" d="M441.478,6492.392c0,0-2,165.349-2,178.56s16.919,14.532,16.919,0
			c0-14.532-0.248-178.56-0.248-178.56H441.478z"/>
		<linearGradient id="SVGID_20_" gradientUnits="userSpaceOnUse" x1="458.3972" y1="6588.876" x2="475.3164" y2="6588.876">
			<stop  offset="0" style="stop-color:#FFCC00"/>
			<stop  offset="1" style="stop-color:#FF9933"/>
		</linearGradient>
		<path style="fill:url(#SVGID_20_);" d="M460.397,6494.392c0,0-2,165.349-2,178.56s16.919,14.532,16.919,0
			c0-14.532-0.248-178.56-0.248-178.56H460.397z"/>
		<linearGradient id="SVGID_21_" gradientUnits="userSpaceOnUse" x1="476.0057" y1="6589.876" x2="492.9249" y2="6589.876">
			<stop  offset="0" style="stop-color:#FFCC00"/>
			<stop  offset="1" style="stop-color:#FF9933"/>
		</linearGradient>
		<path style="fill:url(#SVGID_21_);" d="M478.006,6495.392c0,0-2,165.349-2,178.56s16.919,14.532,16.919,0
			c0-14.532-0.248-178.56-0.248-178.56H478.006z"/>
		<linearGradient id="SVGID_22_" gradientUnits="userSpaceOnUse" x1="493.9249" y1="6589.876" x2="510.844" y2="6589.876">
			<stop  offset="0" style="stop-color:#FFCC00"/>
			<stop  offset="1" style="stop-color:#FF9933"/>
		</linearGradient>
		<path style="fill:url(#SVGID_22_);" d="M495.925,6495.392c0,0-2,165.349-2,178.56s16.919,14.532,16.919,0
			c0-14.532-0.248-178.56-0.248-178.56H495.925z"/>
		<linearGradient id="SVGID_23_" gradientUnits="userSpaceOnUse" x1="512.301" y1="6587.876" x2="529.2201" y2="6587.876">
			<stop  offset="0" style="stop-color:#FFCC00"/>
			<stop  offset="1" style="stop-color:#FF9933"/>
		</linearGradient>
		<path style="fill:url(#SVGID_23_);" d="M514.301,6493.392c0,0-2,165.349-2,178.56s16.919,14.532,16.919,0
			c0-14.532-0.248-178.56-0.248-178.56H514.301z"/>
		<linearGradient id="SVGID_24_" gradientUnits="userSpaceOnUse" x1="530.2201" y1="6586.876" x2="547.1393" y2="6586.876">
			<stop  offset="0" style="stop-color:#FFCC00"/>
			<stop  offset="1" style="stop-color:#FF9933"/>
		</linearGradient>
		<path style="fill:url(#SVGID_24_);" d="M532.22,6492.392c0,0-2,165.349-2,178.56s16.919,14.532,16.919,0
			c0-14.532-0.248-178.56-0.248-178.56H532.22z"/>
		<linearGradient id="SVGID_25_" gradientUnits="userSpaceOnUse" x1="548.7633" y1="6585.8145" x2="566.2845" y2="6585.8145">
			<stop  offset="0" style="stop-color:#FFCC00"/>
			<stop  offset="1" style="stop-color:#FF9933"/>
		</linearGradient>
		<path style="fill:url(#SVGID_25_);" d="M548.763,6491.496c0,0,0.409,165.36,0.602,178.57c0.193,13.209,17.129,14.284,16.917-0.247
			s-2.849-178.537-2.849-178.537L548.763,6491.496z"/>
		<linearGradient id="SVGID_26_" gradientUnits="userSpaceOnUse" x1="565.0822" y1="6582.7876" x2="583.7396" y2="6582.7876">
			<stop  offset="0" style="stop-color:#FFCC00"/>
			<stop  offset="1" style="stop-color:#FF9933"/>
		</linearGradient>
		<path style="fill:url(#SVGID_26_);" d="M565.082,6488.547c0,0,1.461,165.354,1.738,178.562
			c0.277,13.208,17.22,14.175,16.915-0.354c-0.304-14.529-3.985-178.515-3.985-178.515L565.082,6488.547z"/>
	</g>
	<g id="SHADOW_RUBANS_1_" style="opacity:0.5;">
		<g>
			<linearGradient id="SVGID_27_" gradientUnits="userSpaceOnUse" x1="493.8293" y1="6469.8696" x2="493.8293" y2="6684.3604">
				<stop  offset="0" style="stop-color:#990000"/>
				<stop  offset="0.4" style="stop-color:#990000;stop-opacity:0"/>
			</linearGradient>
			<path style="fill:url(#SVGID_27_);" d="M595.575,6486.964c3.041-0.719,4.571-1.178,4.571-1.178v-15.917H387.704v15.917
				c0,0,1.473,0.441,4.394,1.136c-0.928,31.987-4.624,159.722-4.82,171.268c-0.196,11.569,12.737,14.238,16.118,4.961
				c-0.009,0.457-0.016,0.84-0.02,1.143c-0.196,13.209,16.702,14.781,16.917,0.251c0.19-12.841,1.919-142.425,2.319-172.383
				c0.301,0.038,0.601,0.075,0.906,0.113c-0.221,18.305-1.977,164.296-1.977,176.677c0,13.211,16.919,14.532,16.919,0
				c0-13.283-0.207-151.458-0.242-175.121c1.062,0.096,2.142,0.19,3.238,0.282c-0.212,17.564-1.979,164.42-1.979,176.839
				c0,13.211,16.919,14.532,16.919,0c0-13.42-0.211-154.316-0.244-175.812c1.387,0.079,2.802,0.153,4.232,0.224
				c-0.163,13.537-1.988,164.968-1.988,177.588c0,13.211,16.919,14.532,16.919,0c0-13.707-0.22-160.402-0.245-177.024
				c0.961,0.025,1.95,0.044,2.927,0.066c-0.13,10.801-1.993,165.209-1.993,177.958c0,13.211,16.919,14.532,16.919,0
				c0-13.948-0.228-165.606-0.246-177.781c0.42,0,0.824,0.005,1.246,0.005c0.675,0,1.323-0.007,1.991-0.009
				c-0.147,12.205-1.991,165.101-1.991,177.784c0,13.211,16.919,14.532,16.919,0c0-14.029-0.231-167.362-0.247-177.975
				c1.235-0.029,2.465-0.059,3.674-0.094c-0.25,20.688-1.97,163.815-1.97,176.068c0,13.211,16.919,14.532,16.919,0
				c0-13.612-0.217-158.384-0.245-176.664c1.084-0.057,2.153-0.116,3.212-0.178c-0.259,21.486-1.967,163.632-1.967,175.841
				c0,13.211,16.919,14.532,16.919,0c0-13.669-0.219-159.596-0.245-176.883c0.632-0.054,1.255-0.108,1.875-0.163
				c0.051,20.399,0.417,163.892,0.596,176.16c0.193,13.209,17.129,14.284,16.917-0.247c-0.202-13.833-2.602-163.141-2.832-177.436
				c0.567-0.068,1.11-0.138,1.664-0.207c0.216,24.296,1.453,162.887,1.706,174.933c0.276,13.208,17.22,14.175,16.915-0.354
				c-0.024-1.136-0.068-3.184-0.13-5.996c1.632,11.631,17.14,11.845,16.77-2.062
				C600.037,6645.942,596.446,6517.993,595.575,6486.964z M405.303,6587.944c0.583-37.489,1.232-79.402,1.521-98.086
				c0.363,0.062,0.714,0.123,1.087,0.185C407.545,6503.638,406.367,6547.515,405.303,6587.944z M579.792,6490.066
				c0.362-0.06,0.71-0.119,1.062-0.179c0.389,26.73,1.527,104.566,2.179,145.023
				C581.973,6587.315,580.091,6503.426,579.792,6490.066z"/>
		</g>
	</g>
	<g id="SUPPORT_BAS">
		<linearGradient id="SVGID_28_" gradientUnits="userSpaceOnUse" x1="387.704" y1="6375.7773" x2="600.1457" y2="6375.7773">
			<stop  offset="0" style="stop-color:#000000"/>
			<stop  offset="0.6385" style="stop-color:#333333"/>
			<stop  offset="1" style="stop-color:#161616"/>
		</linearGradient>
		<path style="fill:url(#SVGID_28_);" d="M387.704,6255.379h212.442v230.407c0,0-34.441,10.39-106.221,10.39
			s-106.221-10.39-106.221-10.39V6255.379z"/>
	</g>
</g>
<g id="SUPPORT_HAUT">
	<linearGradient id="SVGID_29_" gradientUnits="userSpaceOnUse" x1="337.5019" y1="5632.1313" x2="650.3475" y2="5632.1313">
		<stop  offset="0" style="stop-color:#000000"/>
		<stop  offset="0.6385" style="stop-color:#333333"/>
		<stop  offset="1" style="stop-color:#161616"/>
	</linearGradient>
	<path style="fill:url(#SVGID_29_);" d="M650.347,5769.222H337.502l1-251.222c0,0,49.718-22.96,155.423-22.96
		S649.347,5518,649.347,5518L650.347,5769.222z"/>
</g>
<g id="LAMPION">
	<g>
		<linearGradient id="SVGID_30_" gradientUnits="userSpaceOnUse" x1="493.9247" y1="6012.5747" x2="493.9247" y2="5982.3286">
			<stop  offset="0" style="stop-color:#FF3300"/>
			<stop  offset="1" style="stop-color:#E83304"/>
		</linearGradient>
		<path style="fill:url(#SVGID_30_);" d="M987.849,5982.329H493.925H0c4.301,9.794,4.178,19.963,1.024,30.246h492.901h492.901
			C983.671,6002.292,983.549,5992.123,987.849,5982.329z"/>
	</g>
	<g>
		<linearGradient id="SVGID_31_" gradientUnits="userSpaceOnUse" x1="493.9247" y1="5982.3286" x2="493.9247" y2="5952.082">
			<stop  offset="0" style="stop-color:#FF3300"/>
			<stop  offset="1" style="stop-color:#E83304"/>
		</linearGradient>
		<path style="fill:url(#SVGID_31_);" d="M986.825,5952.082H493.925H1.024c3.469,9.024,2.008,19.395-1.024,30.247h493.925h493.925
			C984.817,5971.477,983.356,5961.106,986.825,5952.082z"/>
	</g>
	<g>
		<linearGradient id="SVGID_32_" gradientUnits="userSpaceOnUse" x1="493.9247" y1="5952.082" x2="493.9247" y2="5921.8359">
			<stop  offset="0" style="stop-color:#FF3300"/>
			<stop  offset="1" style="stop-color:#E83304"/>
		</linearGradient>
		<path style="fill:url(#SVGID_32_);" d="M983.72,5921.836H493.925H4.13c4.088,9.4,1.399,19.684-3.106,30.246h492.901h492.901
			C982.321,5941.52,979.632,5931.236,983.72,5921.836z"/>
	</g>
	<g>
		<linearGradient id="SVGID_33_" gradientUnits="userSpaceOnUse" x1="493.9247" y1="5921.8359" x2="493.9247" y2="5891.5894">
			<stop  offset="0" style="stop-color:#FF3300"/>
			<stop  offset="1" style="stop-color:#E83304"/>
		</linearGradient>
		<path style="fill:url(#SVGID_33_);" d="M978.443,5891.589H493.925H9.406c1.695,11.284-1.255,20.979-5.277,30.247h489.795H983.72
			C979.698,5912.568,976.748,5902.874,978.443,5891.589z"/>
	</g>
	<g>
		<linearGradient id="SVGID_34_" gradientUnits="userSpaceOnUse" x1="493.9247" y1="5891.5894" x2="493.9247" y2="5861.3433">
			<stop  offset="0" style="stop-color:#FF3300"/>
			<stop  offset="1" style="stop-color:#E83304"/>
		</linearGradient>
		<path style="fill:url(#SVGID_34_);" d="M970.862,5861.343H493.925H16.988c0.901,10.776-2.496,20.687-7.582,30.246h484.518h484.518
			C973.358,5882.03,969.96,5872.119,970.862,5861.343z"/>
	</g>
	<g>
		<linearGradient id="SVGID_35_" gradientUnits="userSpaceOnUse" x1="493.9247" y1="5861.3433" x2="493.9247" y2="5831.0967">
			<stop  offset="0" style="stop-color:#FF3300"/>
			<stop  offset="1" style="stop-color:#E83304"/>
		</linearGradient>
		<path style="fill:url(#SVGID_35_);" d="M960.782,5831.097H493.925H27.067c1.145,10.102-3.76,20.149-10.079,30.247h476.937h476.937
			C964.543,5851.246,959.638,5841.199,960.782,5831.097z"/>
	</g>
	<g>
		<linearGradient id="SVGID_36_" gradientUnits="userSpaceOnUse" x1="493.9247" y1="5831.0967" x2="493.9247" y2="5800.8506">
			<stop  offset="0" style="stop-color:#FF3300"/>
			<stop  offset="1" style="stop-color:#E83304"/>
		</linearGradient>
		<path style="fill:url(#SVGID_36_);" d="M947.921,5800.851H493.925H39.928c-0.613,11.15-6.049,20.898-12.861,30.246h466.858
			h466.858C953.971,5821.749,948.535,5812,947.921,5800.851z"/>
	</g>
	<g>
		<linearGradient id="SVGID_37_" gradientUnits="userSpaceOnUse" x1="493.9247" y1="5800.8506" x2="493.9247" y2="5770.604">
			<stop  offset="0" style="stop-color:#FF3300"/>
			<stop  offset="1" style="stop-color:#E83304"/>
		</linearGradient>
		<path style="fill:url(#SVGID_37_);" d="M931.914,5770.604H493.925H55.935c-1.547,10.112-8.041,20.143-16.007,30.247h453.997
			h453.997C939.955,5790.747,933.461,5780.716,931.914,5770.604z"/>
	</g>
	<g>
		<linearGradient id="SVGID_38_" gradientUnits="userSpaceOnUse" x1="493.9247" y1="5770.604" x2="493.9247" y2="5740.3579">
			<stop  offset="0" style="stop-color:#FF3300"/>
			<stop  offset="1" style="stop-color:#E83304"/>
		</linearGradient>
		<path style="fill:url(#SVGID_38_);" d="M912.22,5740.358H493.925H75.629c-2.627,9.417-10.384,19.622-19.694,30.246h437.989
			h437.989C922.604,5759.98,914.847,5749.775,912.22,5740.358z"/>
	</g>
	<g>
		<linearGradient id="SVGID_39_" gradientUnits="userSpaceOnUse" x1="493.9247" y1="5740.3579" x2="493.9247" y2="5710.1113">
			<stop  offset="0" style="stop-color:#FF3300"/>
			<stop  offset="1" style="stop-color:#E83304"/>
		</linearGradient>
		<path style="fill:url(#SVGID_39_);" d="M888.058,5710.111H493.925H99.792c-4.979,11.119-14.021,20.848-24.162,30.247h418.295
			H912.22C902.078,5730.959,893.036,5721.23,888.058,5710.111z"/>
	</g>
	<g>
		<linearGradient id="SVGID_40_" gradientUnits="userSpaceOnUse" x1="493.9247" y1="5710.1113" x2="493.9247" y2="5679.8652">
			<stop  offset="0" style="stop-color:#FF3300"/>
			<stop  offset="1" style="stop-color:#E83304"/>
		</linearGradient>
		<path style="fill:url(#SVGID_40_);" d="M858.176,5679.865H493.925H129.674c-4.946,10.006-16.304,20.02-29.882,30.246h394.133
			h394.133C874.48,5699.885,863.122,5689.871,858.176,5679.865z"/>
	</g>
	<g>
		<linearGradient id="SVGID_41_" gradientUnits="userSpaceOnUse" x1="493.9247" y1="5679.8652" x2="493.9247" y2="5649.6187">
			<stop  offset="0" style="stop-color:#FF3300"/>
			<stop  offset="1" style="stop-color:#E83304"/>
		</linearGradient>
		<path style="fill:url(#SVGID_41_);" d="M820.504,5649.619h-326.58h-326.58c-5.604,9.851-19.866,19.88-37.672,30.247h364.251
			h364.251C840.37,5669.499,826.108,5659.469,820.504,5649.619z"/>
	</g>
	<g>
		<linearGradient id="SVGID_42_" gradientUnits="userSpaceOnUse" x1="493.9247" y1="5649.6187" x2="493.9247" y2="5619.3726">
			<stop  offset="0" style="stop-color:#FF3300"/>
			<stop  offset="1" style="stop-color:#E83304"/>
		</linearGradient>
		<path style="fill:url(#SVGID_42_);" d="M770.943,5619.373H493.925H216.906c-8.843,11.951-26.713,21.646-49.561,30.246h326.58
			h326.58C797.656,5641.019,779.787,5631.324,770.943,5619.373z"/>
	</g>
	<g>
		<linearGradient id="SVGID_43_" gradientUnits="userSpaceOnUse" x1="493.9247" y1="5619.3726" x2="493.9247" y2="5589.126">
			<stop  offset="0" style="stop-color:#FF3300"/>
			<stop  offset="1" style="stop-color:#E83304"/>
		</linearGradient>
		<path style="fill:url(#SVGID_43_);" d="M698.97,5589.126H493.925H288.879c-13.993,12.144-41.67,21.162-71.973,30.247h277.019
			h277.019C740.64,5610.288,712.963,5601.27,698.97,5589.126z"/>
	</g>
	<g>
		<linearGradient id="SVGID_44_" gradientUnits="userSpaceOnUse" x1="493.9247" y1="5589.126" x2="493.9247" y2="5558.8799">
			<stop  offset="0" style="stop-color:#FF3300"/>
			<stop  offset="1" style="stop-color:#E83304"/>
		</linearGradient>
		<path style="fill:url(#SVGID_44_);" d="M493.925,5558.88c-78.239,0-146.406,10.908-205.045,30.246h205.045H698.97
			C640.331,5569.788,572.163,5558.88,493.925,5558.88z"/>
	</g>
	<g>
		<linearGradient id="SVGID_45_" gradientUnits="userSpaceOnUse" x1="493.9247" y1="6405.7773" x2="493.9247" y2="6375.5308">
			<stop  offset="0" style="stop-color:#FF3300"/>
			<stop  offset="1" style="stop-color:#E83304"/>
		</linearGradient>
		<path style="fill:url(#SVGID_45_);" d="M493.925,6375.531H288.879c58.64,19.338,126.807,30.247,205.045,30.247
			s146.406-10.908,205.045-30.247H493.925z"/>
	</g>
	<g>
		<linearGradient id="SVGID_46_" gradientUnits="userSpaceOnUse" x1="493.9247" y1="6375.5308" x2="493.9247" y2="6345.2847">
			<stop  offset="0" style="stop-color:#FF3300"/>
			<stop  offset="1" style="stop-color:#E83304"/>
		</linearGradient>
		<path style="fill:url(#SVGID_46_);" d="M493.925,6345.285H216.906c31.305,6.641,54.701,17.107,71.973,30.246h205.045H698.97
			c17.273-13.139,40.669-23.605,71.973-30.246H493.925z"/>
	</g>
	<g>
		<linearGradient id="SVGID_47_" gradientUnits="userSpaceOnUse" x1="493.9247" y1="6345.2847" x2="493.9247" y2="6315.0381">
			<stop  offset="0" style="stop-color:#FF3300"/>
			<stop  offset="1" style="stop-color:#E83304"/>
		</linearGradient>
		<path style="fill:url(#SVGID_47_);" d="M493.925,6315.038h-326.58c25.262,9.402,39.11,19.926,49.561,30.247h277.019h277.019
			c10.451-10.32,24.299-20.845,49.561-30.247H493.925z"/>
	</g>
	<g>
		<linearGradient id="SVGID_48_" gradientUnits="userSpaceOnUse" x1="493.9247" y1="6315.0381" x2="493.9247" y2="6284.792">
			<stop  offset="0" style="stop-color:#FF3300"/>
			<stop  offset="1" style="stop-color:#E83304"/>
		</linearGradient>
		<path style="fill:url(#SVGID_48_);" d="M493.925,6284.792H129.674c21.272,8.649,32.197,19.094,37.672,30.246h326.58h326.58
			c5.474-11.152,16.399-21.597,37.672-30.246H493.925z"/>
	</g>
	<g>
		<linearGradient id="SVGID_49_" gradientUnits="userSpaceOnUse" x1="493.9247" y1="6284.792" x2="493.9247" y2="6254.5454">
			<stop  offset="0" style="stop-color:#FF3300"/>
			<stop  offset="1" style="stop-color:#E83304"/>
		</linearGradient>
		<path style="fill:url(#SVGID_49_);" d="M493.925,6254.545H99.792c15.705,10.961,25.133,21.021,29.882,30.247h364.251h364.251
			c4.749-9.225,14.177-19.285,29.882-30.247H493.925z"/>
	</g>
	<g>
		<linearGradient id="SVGID_50_" gradientUnits="userSpaceOnUse" x1="493.9247" y1="6254.5454" x2="493.9247" y2="6224.2993">
			<stop  offset="0" style="stop-color:#FF3300"/>
			<stop  offset="1" style="stop-color:#E83304"/>
		</linearGradient>
		<path style="fill:url(#SVGID_50_);" d="M493.925,6224.299H75.629c14.258,6.791,21.854,17.128,24.162,30.246h394.133h394.133
			c2.308-13.118,9.905-23.456,24.162-30.246H493.925z"/>
	</g>
	<g>
		<linearGradient id="SVGID_51_" gradientUnits="userSpaceOnUse" x1="493.9247" y1="6224.2993" x2="493.9247" y2="6194.0527">
			<stop  offset="0" style="stop-color:#FF3300"/>
			<stop  offset="1" style="stop-color:#E83304"/>
		</linearGradient>
		<path style="fill:url(#SVGID_51_);" d="M493.925,6194.053H55.935c12.094,7.971,17.815,18.392,19.694,30.247h418.295H912.22
			c1.879-11.854,7.6-22.275,19.694-30.247H493.925z"/>
	</g>
	<g>
		<linearGradient id="SVGID_52_" gradientUnits="userSpaceOnUse" x1="493.9247" y1="6194.0527" x2="493.9247" y2="6163.8066">
			<stop  offset="0" style="stop-color:#FF3300"/>
			<stop  offset="1" style="stop-color:#E83304"/>
		</linearGradient>
		<path style="fill:url(#SVGID_52_);" d="M493.925,6163.807H39.928c9.026,8.868,13.764,19.161,16.007,30.246h437.989h437.989
			c2.243-11.085,6.982-21.378,16.007-30.246H493.925z"/>
	</g>
	<g>
		<linearGradient id="SVGID_53_" gradientUnits="userSpaceOnUse" x1="493.9247" y1="6163.8066" x2="493.9247" y2="6133.5601">
			<stop  offset="0" style="stop-color:#FF3300"/>
			<stop  offset="1" style="stop-color:#E83304"/>
		</linearGradient>
		<path style="fill:url(#SVGID_53_);" d="M493.925,6133.56H27.067c8.856,9.426,12.014,19.698,12.861,30.247h453.997h453.997
			c0.847-10.549,4.005-20.821,12.861-30.247H493.925z"/>
	</g>
	<g>
		<linearGradient id="SVGID_54_" gradientUnits="userSpaceOnUse" x1="493.9247" y1="6133.5601" x2="493.9247" y2="6103.314">
			<stop  offset="0" style="stop-color:#FF3300"/>
			<stop  offset="1" style="stop-color:#E83304"/>
		</linearGradient>
		<path style="fill:url(#SVGID_54_);" d="M493.925,6103.314H16.988c7.181,5.256,10.049,15.917,10.079,30.246h466.858h466.858
			c0.03-14.329,2.898-24.99,10.079-30.246H493.925z"/>
	</g>
	<g>
		<linearGradient id="SVGID_55_" gradientUnits="userSpaceOnUse" x1="493.9247" y1="6103.314" x2="493.9247" y2="6073.0674">
			<stop  offset="0" style="stop-color:#FF3300"/>
			<stop  offset="1" style="stop-color:#E83304"/>
		</linearGradient>
		<path style="fill:url(#SVGID_55_);" d="M493.925,6073.067H9.406c5.558,6.674,7.725,17.131,7.582,30.247h476.937h476.937
			c-0.143-13.115,2.024-23.572,7.582-30.247H493.925z"/>
	</g>
	<g>
		<linearGradient id="SVGID_56_" gradientUnits="userSpaceOnUse" x1="493.9247" y1="6073.0674" x2="493.9247" y2="6042.8213">
			<stop  offset="0" style="stop-color:#FF3300"/>
			<stop  offset="1" style="stop-color:#E83304"/>
		</linearGradient>
		<path style="fill:url(#SVGID_56_);" d="M983.72,6042.821H493.925H4.13c6.028,8.068,6.964,18.526,5.277,30.246h484.518h484.518
			C976.756,6061.347,977.691,6050.89,983.72,6042.821z"/>
	</g>
	<g>
		<linearGradient id="SVGID_57_" gradientUnits="userSpaceOnUse" x1="493.9247" y1="6042.8213" x2="493.9247" y2="6012.5747">
			<stop  offset="0" style="stop-color:#FF3300"/>
			<stop  offset="1" style="stop-color:#E83304"/>
		</linearGradient>
		<path style="fill:url(#SVGID_57_);" d="M986.825,6012.575H493.925H1.024c3.469,6.224,4.099,16.88,3.106,30.247h489.795H983.72
			C982.726,6029.455,983.357,6018.799,986.825,6012.575z"/>
	</g>
</g>
<g id="LIGHT" style="opacity:0.6;">
	<radialGradient id="SVGID_58_" cx="493.9247" cy="5982.3286" r="553.1203" gradientUnits="userSpaceOnUse">
		<stop  offset="0" style="stop-color:#FFCC66"/>
		<stop  offset="1" style="stop-color:#FFCC99;stop-opacity:0"/>
	</radialGradient>
	<path style="fill:url(#SVGID_58_);" d="M987.849,5982.329c-3.032-10.852-4.493-21.223-1.024-30.247
		c-4.505-10.562-7.194-20.846-3.106-30.246c-4.021-9.268-6.972-18.962-5.277-30.247c-5.085-9.56-8.483-19.47-7.582-30.246
		c-6.319-10.097-11.224-20.145-10.079-30.247c-6.812-9.348-12.248-19.096-12.861-30.246c-7.967-10.104-14.46-20.134-16.007-30.247
		c-9.311-10.624-17.067-20.829-19.694-30.246c-10.142-9.399-19.184-19.127-24.162-30.247c-13.578-10.227-24.936-20.24-29.882-30.246
		c-17.805-10.366-32.068-20.396-37.672-30.247c-22.848-8.6-40.718-18.295-49.561-30.246c-30.304-9.084-57.981-18.103-71.973-30.247
		c-58.64-19.338-126.807-30.246-205.045-30.246s-146.406,10.908-205.045,30.246c-13.993,12.144-41.67,21.162-71.973,30.247
		c-8.843,11.951-26.713,21.646-49.561,30.246c-5.604,9.851-19.866,19.88-37.672,30.247c-4.946,10.006-16.304,20.02-29.882,30.246
		c-4.979,11.119-14.021,20.848-24.162,30.247c-2.627,9.417-10.384,19.622-19.694,30.246c-1.547,10.112-8.041,20.143-16.007,30.247
		c-0.613,11.15-6.049,20.898-12.861,30.246c1.145,10.102-3.76,20.149-10.079,30.247c0.901,10.776-2.496,20.687-7.582,30.246
		c1.695,11.284-1.255,20.979-5.277,30.247c4.088,9.4,1.399,19.684-3.106,30.246c3.469,9.024,2.008,19.395-1.024,30.247
		c4.301,9.794,4.178,19.963,1.024,30.246c3.469,6.224,4.099,16.88,3.106,30.247c6.028,8.068,6.964,18.526,5.277,30.246
		c5.558,6.674,7.725,17.131,7.582,30.247c7.181,5.256,10.049,15.917,10.079,30.246c8.856,9.426,12.014,19.698,12.861,30.247
		c9.026,8.868,13.764,19.161,16.007,30.246c12.094,7.971,17.815,18.392,19.694,30.247c14.258,6.791,21.854,17.128,24.162,30.246
		c15.705,10.961,25.133,21.021,29.882,30.247c21.272,8.649,32.197,19.094,37.672,30.246c25.262,9.402,39.11,19.926,49.561,30.247
		c31.305,6.641,54.701,17.107,71.973,30.246c58.64,19.338,126.807,30.247,205.045,30.247s146.406-10.908,205.045-30.247
		c17.273-13.139,40.669-23.605,71.973-30.246c10.451-10.32,24.299-20.845,49.561-30.247c5.474-11.152,16.399-21.597,37.672-30.246
		c4.749-9.225,14.177-19.285,29.882-30.247c2.308-13.118,9.905-23.456,24.162-30.246c1.879-11.854,7.6-22.275,19.694-30.247
		c2.243-11.085,6.982-21.378,16.007-30.246c0.847-10.549,4.005-20.821,12.861-30.247c0.03-14.329,2.898-24.99,10.079-30.246
		c-0.143-13.115,2.024-23.572,7.582-30.247c-1.687-11.72-0.752-22.178,5.277-30.246c-0.993-13.367-0.363-24.022,3.106-30.247
		C983.671,6002.292,983.549,5992.123,987.849,5982.329z"/>
</g>
<path id="ARRETE_DROITE" style="opacity:0.3;fill:#990000;" d="M493.925,6405.777L493.925,6405.777
	c39.617,0,75.543-16.903,106.781-40.38c28.973-21.774,53.972-53.456,74.305-94.164c37.098-74.275,57.529-176.877,57.529-288.905
	c0-112.028-20.431-214.63-57.529-288.905c-20.333-40.708-45.333-72.389-74.305-94.164c-31.238-23.477-67.164-40.38-106.781-40.38
	l0,0c41.833,0,79.78,7.578,112.789,32.386c30.224,22.714,61.212,55.582,82.243,97.689c37.778,75.636,63.583,179.824,63.583,293.373
	s-25.805,217.738-63.583,293.374c-21.031,42.107-52.02,74.975-82.243,97.688C573.705,6398.199,535.757,6405.777,493.925,6405.777z"
	/>
<path id="ARRETE_GAUCHE" style="opacity:0.3;fill:#990000;" d="M493.925,6405.777c-58.161,0-110.952-7.439-156.906-31.973
	c-42.364-22.616-83.837-55.407-113.407-97.461c-53.291-75.79-87.639-180.207-87.639-294.016s34.349-218.225,87.639-294.015
	c29.57-42.054,71.043-74.845,113.407-97.461c45.954-24.533,98.745-31.972,156.906-31.972l0,0
	c-56.501,0-107.707,17.042-152.197,40.793c-40.97,21.872-76.275,53.63-104.936,94.392c-52.117,74.121-80.819,176.495-80.819,288.263
	s28.702,214.143,80.819,288.264c28.661,40.762,63.966,72.52,104.936,94.392C386.218,6388.734,437.424,6405.777,493.925,6405.777
	L493.925,6405.777z"/>
<g id="SHADOW" style="opacity:0.2;">
	<linearGradient id="SVGID_59_" gradientUnits="userSpaceOnUse" x1="0" y1="5982.3286" x2="825.7704" y2="5982.3286">
		<stop  offset="0.1036" style="stop-color:#660000"/>
		<stop  offset="0.5195" style="stop-color:#990000;stop-opacity:0"/>
	</linearGradient>
	<path style="fill:url(#SVGID_59_);" d="M987.849,5982.329c-3.032-10.852-4.493-21.223-1.024-30.247
		c-4.505-10.562-7.194-20.846-3.106-30.246c-4.021-9.268-6.972-18.962-5.277-30.247c-5.085-9.56-8.483-19.47-7.582-30.246
		c-6.319-10.097-11.224-20.145-10.079-30.247c-6.812-9.348-12.248-19.096-12.861-30.246c-7.967-10.104-14.46-20.134-16.007-30.247
		c-9.311-10.624-17.067-20.829-19.694-30.246c-10.142-9.399-19.184-19.127-24.162-30.247c-13.578-10.227-24.936-20.24-29.882-30.246
		c-17.805-10.366-32.068-20.396-37.672-30.247c-22.848-8.6-40.718-18.295-49.561-30.246c-30.304-9.084-57.981-18.103-71.973-30.247
		c-58.64-19.338-126.807-30.246-205.045-30.246s-146.406,10.908-205.045,30.246c-13.993,12.144-41.67,21.162-71.973,30.247
		c-8.843,11.951-26.713,21.646-49.561,30.246c-5.604,9.851-19.866,19.88-37.672,30.247c-4.946,10.006-16.304,20.02-29.882,30.246
		c-4.979,11.119-14.021,20.848-24.162,30.247c-2.627,9.417-10.384,19.622-19.694,30.246c-1.547,10.112-8.041,20.143-16.007,30.247
		c-0.613,11.15-6.049,20.898-12.861,30.246c1.145,10.102-3.76,20.149-10.079,30.247c0.901,10.776-2.496,20.687-7.582,30.246
		c1.695,11.284-1.255,20.979-5.277,30.247c4.088,9.4,1.399,19.684-3.106,30.246c3.469,9.024,2.008,19.395-1.024,30.247
		c4.301,9.794,4.178,19.963,1.024,30.246c3.469,6.224,4.099,16.88,3.106,30.247c6.028,8.068,6.964,18.526,5.277,30.246
		c5.558,6.674,7.725,17.131,7.582,30.247c7.181,5.256,10.049,15.917,10.079,30.246c8.856,9.426,12.014,19.698,12.861,30.247
		c9.026,8.868,13.764,19.161,16.007,30.246c12.094,7.971,17.815,18.392,19.694,30.247c14.258,6.791,21.854,17.128,24.162,30.246
		c15.705,10.961,25.133,21.021,29.882,30.247c21.272,8.649,32.197,19.094,37.672,30.246c25.262,9.402,39.11,19.926,49.561,30.247
		c31.305,6.641,54.701,17.107,71.973,30.246c58.64,19.338,126.807,30.247,205.045,30.247s146.406-10.908,205.045-30.247
		c17.273-13.139,40.669-23.605,71.973-30.246c10.451-10.32,24.299-20.845,49.561-30.247c5.474-11.152,16.399-21.597,37.672-30.246
		c4.749-9.225,14.177-19.285,29.882-30.247c2.308-13.118,9.905-23.456,24.162-30.246c1.879-11.854,7.6-22.275,19.694-30.247
		c2.243-11.085,6.982-21.378,16.007-30.246c0.847-10.549,4.005-20.821,12.861-30.247c0.03-14.329,2.898-24.99,10.079-30.246
		c-0.143-13.115,2.024-23.572,7.582-30.247c-1.687-11.72-0.752-22.178,5.277-30.246c-0.993-13.367-0.363-24.022,3.106-30.247
		C983.671,6002.292,983.549,5992.123,987.849,5982.329z"/>
</g>
</svg>
