<?xml version="1.0" encoding="iso-8859-1"?>
<!-- Generator: Adobe Illustrator 25.1.0, SVG Export Plug-In . SVG Version: 6.00 Build 0)  -->
<svg version="1.1" id="LAMPION_ALLONGE" xmlns="http://www.w3.org/2000/svg" xmlns:xlink="http://www.w3.org/1999/xlink" x="0px"
	 y="0px" viewBox="0 0 669.156 5020.241" style="enable-background:new 0 0 669.156 5020.241;" xml:space="preserve">
<g id="FILS_1_">
	<polyline style="fill:none;stroke:#000000;stroke-width:3;stroke-miterlimit:10;" points="223.616,3464.457 328.76,3240.861 
		433.671,3464.457 	"/>
	<polyline style="fill:none;stroke:#000000;stroke-width:3;stroke-miterlimit:10;" points="303.449,3449.169 328.76,3240.861 
		328.76,-2.286 	"/>
</g>
<g style="display:none;">
	<path style="display:inline;fill:#FFFFFF;" d="M334.578,4943.984c-60.074,0-112.39-10.209-155.494-30.344
		c-39.234-18.327-72.016-45.44-97.434-80.588c-42.349-58.561-65.862-140.258-71.883-249.759
		c-10.494-190.836-10.494-552.147,0-729.442c6.491-109.669,30.098-191.332,72.169-249.653
		c25.379-35.182,58.101-62.318,97.255-80.655c43.05-20.162,95.329-30.384,155.386-30.384c60.04,0,112.258,10.226,155.207,30.395
		c39.028,18.328,71.649,45.47,96.957,80.673c41.606,57.875,65.37,139.53,72.647,249.628c12.273,185.69,12.273,546.996,0,729.432
		c-3.47,51.573-10.218,95.536-20.63,134.401c-12.136,45.298-29.666,84.095-52.104,115.313
		c-25.29,35.185-57.893,62.309-96.902,80.619C446.828,4933.769,394.62,4943.984,334.578,4943.984z"/>
	<path style="display:inline;" d="M334.578,3493.66c59.965,0,112.113,10.21,154.995,30.347
		c38.95,18.291,71.506,45.379,96.763,80.512c22.423,31.191,39.931,69.937,52.039,115.161
		c10.404,38.864,17.115,82.764,20.516,134.208c5.906,89.342,9.283,222.964,9.267,366.603
		c-0.016,143.244-3.394,275.465-9.267,362.762c-3.467,51.541-10.21,95.472-20.614,134.306
		c-12.12,45.24-29.624,83.982-52.028,115.151c-25.24,35.115-57.777,62.186-96.708,80.458
		c-42.857,20.116-94.994,30.315-154.962,30.315c-60,0-112.245-10.193-155.283-30.297c-39.156-18.291-71.872-45.351-97.24-80.429
		c-42.291-58.48-65.774-140.09-71.789-249.493c-5.09-92.566-7.979-228.32-7.925-372.451c0.053-142.628,2.941-272.726,7.925-356.933
		c6.485-109.572,30.061-191.148,72.075-249.39c25.329-35.112,57.985-62.194,97.062-80.495
		C222.386,3503.867,274.595,3493.66,334.578,3493.66 M334.578,3492.66c-251.989,0-314.367,176.27-325.31,361.163
		c-10.368,175.182-10.77,533.63,0,729.499c10.182,185.179,73.321,361.163,325.31,361.163s312.86-176.119,325.309-361.163
		c12.297-182.784,12.421-541.593,0-729.499C647.671,3669.008,586.567,3492.66,334.578,3492.66L334.578,3492.66z"/>
</g>
<g id="SUPPORT_BAS_1_">
	<linearGradient id="SVGID_1_" gradientUnits="userSpaceOnUse" x1="222.5396" y1="4894.8423" x2="434.9813" y2="4894.8423">
		<stop  offset="0" style="stop-color:#000000"/>
		<stop  offset="0.6385" style="stop-color:#333333"/>
		<stop  offset="1" style="stop-color:#161616"/>
	</linearGradient>
	<path style="fill:url(#SVGID_1_);" d="M222.54,4769.444h212.442v230.407c0,0-34.441,20.39-106.221,20.39
		s-106.221-20.39-106.221-20.39V4769.444z"/>
</g>
<g id="SUPPORT_HAUT_1_">
	
		<linearGradient id="SVGID_2_" gradientUnits="userSpaceOnUse" x1="222.5396" y1="3002.0435" x2="434.9813" y2="3002.0435" gradientTransform="matrix(1 0 0 -1 0 6571.8193)">
		<stop  offset="0" style="stop-color:#000000"/>
		<stop  offset="0.6385" style="stop-color:#333333"/>
		<stop  offset="1" style="stop-color:#161616"/>
	</linearGradient>
	<path style="fill:url(#SVGID_2_);" d="M222.54,3693.674h212.442v-230.407c0,0-34.441-17.39-106.221-17.39
		s-106.221,17.39-106.221,17.39V3693.674z"/>
</g>
<g id="LAMPION_1_">
	<g>
		<path style="fill:#FFFFFF;" d="M489.572,3522.906c-41.281-19.297-92.211-30.246-154.994-30.246v30.246H489.572z"/>
	</g>
	<g>
		<path style="fill:#FFFFFF;" d="M334.578,3553.153h204.254c-14.661-11.564-31.019-21.719-49.26-30.246H334.578V3553.153z"/>
	</g>
	<g>
		<path style="fill:#FFFFFF;" d="M334.578,3583.399h236.194c-9.633-10.9-20.246-21.022-31.94-30.246H334.578V3583.399z"/>
	</g>
	<g>
		<path style="fill:#FFFFFF;" d="M334.578,3613.645h259.238c-6.974-10.628-14.637-20.733-23.044-30.246H334.578V3613.645z"/>
	</g>
	<g>
		<path style="fill:#FFFFFF;" d="M334.578,3643.892h276.626c-5.261-10.474-11.041-20.575-17.388-30.246H334.578V3643.892z"/>
	</g>
	<g>
		<path style="fill:#FFFFFF;" d="M334.578,3674.138h290.033c-4.045-10.375-8.499-20.474-13.408-30.246H334.578V3674.138z"/>
	</g>
	<g>
		<path style="fill:#FFFFFF;" d="M334.578,3704.384h300.468c-3.129-10.307-6.597-20.402-10.435-30.246H334.578V3704.384z"/>
	</g>
	<g>
		<path style="fill:#FFFFFF;" d="M334.578,3734.631h308.579c-2.412-10.254-5.105-20.347-8.111-30.246H334.578V3734.631z"/>
	</g>
	<g>
		<path style="fill:#FFFFFF;" d="M334.578,3764.877h314.827c-1.835-10.211-3.909-20.304-6.248-30.246H334.578V3764.877z"/>
	</g>
	<g>
		<path style="fill:#FFFFFF;" d="M334.578,3795.123h319.549c-1.364-10.175-2.929-20.267-4.722-30.246H334.578V3795.123z"/>
	</g>
	<g>
		<path style="fill:#FFFFFF;" d="M334.578,3825.37H657.59c-0.974-10.144-2.121-20.235-3.463-30.246H334.578V3825.37z"/>
	</g>
	<g>
		<path style="fill:#FFFFFF;" d="M334.578,3855.616h325.426c-0.039-0.597-0.077-1.199-0.117-1.793
			c-0.629-9.515-1.39-19.006-2.297-28.453H334.578V3855.616z"/>
	</g>
	<g>
		<path style="fill:#FFFFFF;" d="M334.578,3885.862h327.22c-0.565-10.497-1.164-20.59-1.794-30.246H334.578V3885.862z"/>
	</g>
	<g>
		<path style="fill:#FFFFFF;" d="M334.578,3916.109h328.711c-0.469-10.4-0.966-20.494-1.49-30.246h-327.22V3916.109z"/>
	</g>
	<g>
		<path style="fill:#FFFFFF;" d="M334.578,3946.355H664.54c-0.392-10.333-0.809-20.427-1.252-30.246H334.578V3946.355z"/>
	</g>
	<g>
		<path style="fill:#FFFFFF;" d="M334.578,3976.601h331.018c-0.329-10.284-0.681-20.375-1.056-30.246H334.578V3976.601z"/>
	</g>
	<g>
		<path style="fill:#FFFFFF;" d="M334.578,4006.848h331.905c-0.275-10.245-0.57-20.335-0.887-30.246H334.578V4006.848z"/>
	</g>
	<g>
		<path style="fill:#FFFFFF;" d="M334.578,4037.094h332.645c-0.227-10.213-0.473-20.302-0.74-30.246H334.578V4037.094z"/>
	</g>
	<g>
		<path style="fill:#FFFFFF;" d="M334.578,4067.34h333.251c-0.183-10.186-0.385-20.275-0.607-30.246H334.578V4067.34z"/>
	</g>
	<g>
		<path style="fill:#FFFFFF;" d="M334.578,4097.587h333.736c-0.143-10.163-0.305-20.251-0.484-30.247H334.578V4097.587z"/>
	</g>
	<g>
		<path style="fill:#FFFFFF;" d="M334.578,4127.833h334.106c-0.105-10.142-0.229-20.229-0.37-30.246H334.578V4127.833z"/>
	</g>
	<g>
		<path style="fill:#FFFFFF;" d="M334.578,4158.08h334.367c-0.07-10.123-0.157-20.21-0.262-30.247H334.578V4158.08z"/>
	</g>
	<g>
		<path style="fill:#FFFFFF;" d="M334.578,4188.326h334.524c-0.035-10.104-0.088-20.191-0.157-30.246H334.578V4188.326z"/>
	</g>
	<g>
		<path style="fill:#FFFFFF;" d="M334.578,4218.572h334.578c-0.001-10.086-0.019-20.174-0.053-30.247H334.578V4218.572z"/>
	</g>
	<g>
		<path style="fill:#FFFFFF;" d="M334.578,4218.572v30.246h334.53c0.033-10.068,0.049-20.156,0.048-30.246H334.578z"/>
	</g>
	<g>
		<path style="fill:#FFFFFF;" d="M334.578,4279.065h334.379c0.067-10.05,0.117-20.138,0.15-30.247h-334.53V4279.065z"/>
	</g>
	<g>
		<path style="fill:#FFFFFF;" d="M334.578,4309.311h334.124c0.103-10.031,0.187-20.12,0.255-30.246H334.578V4309.311z"/>
	</g>
	<g>
		<path style="fill:#FFFFFF;" d="M334.578,4339.558h333.76c0.139-10.012,0.261-20.1,0.365-30.247H334.578V4339.558z"/>
	</g>
	<g>
		<path style="fill:#FFFFFF;" d="M334.578,4369.804h333.281c0.178-9.989,0.338-20.078,0.479-30.246h-333.76V4369.804z"/>
	</g>
	<g>
		<path style="fill:#FFFFFF;" d="M334.578,4400.05h332.679c0.219-9.964,0.42-20.054,0.602-30.247H334.578V4400.05z"/>
	</g>
	<g>
		<path style="fill:#FFFFFF;" d="M334.578,4430.296h331.944c0.265-9.935,0.51-20.026,0.735-30.246H334.578V4430.296z"/>
	</g>
	<g>
		<path style="fill:#FFFFFF;" d="M334.578,4460.543h331.058c0.316-9.903,0.612-19.99,0.885-30.247H334.578V4460.543z"/>
	</g>
	<g>
		<path style="fill:#FFFFFF;" d="M334.578,4490.789h330.003c0.375-9.858,0.726-19.951,1.055-30.246H334.578V4490.789z"/>
	</g>
	<g>
		<path style="fill:#FFFFFF;" d="M334.578,4521.036h328.747c0.444-9.805,0.863-19.896,1.256-30.247H334.578V4521.036z"/>
	</g>
	<g>
		<path style="fill:#FFFFFF;" d="M334.578,4551.282h327.246c0.529-9.728,1.029-19.825,1.501-30.246H334.578V4551.282z"/>
	</g>
	<g>
		<path style="fill:#FFFFFF;" d="M334.578,4581.528h325.428c0.639-9.622,1.245-19.717,1.818-30.247H334.578V4581.528z"/>
	</g>
	<g>
		<path style="fill:#FFFFFF;" d="M334.578,4611.774h322.983c0.916-9.446,1.687-18.938,2.327-28.453
			c0.04-0.593,0.079-1.196,0.119-1.793H334.578V4611.774z"/>
	</g>
	<g>
		<path style="fill:#FFFFFF;" d="M334.578,4642.021h319.498c1.348-10.01,2.501-20.102,3.485-30.247H334.578V4642.021z"/>
	</g>
	<g>
		<path style="fill:#FFFFFF;" d="M334.578,4672.267h314.761c1.797-9.978,3.366-20.07,4.737-30.246H334.578V4672.267z"/>
	</g>
	<g>
		<path style="fill:#FFFFFF;" d="M334.578,4702.514h308.507c2.339-9.942,4.415-20.034,6.254-30.247H334.578V4702.514z"/>
	</g>
	<g>
		<path style="fill:#FFFFFF;" d="M334.578,4732.76h300.397c3.004-9.898,5.698-19.992,8.11-30.246H334.578V4732.76z"/>
	</g>
	<g>
		<path style="fill:#FFFFFF;" d="M334.578,4763.006h289.969c3.834-9.844,7.3-19.939,10.427-30.247H334.578V4763.006z"/>
	</g>
	<g>
		<path style="fill:#FFFFFF;" d="M334.578,4793.252h276.576c4.903-9.771,9.352-19.87,13.394-30.246H334.578V4793.252z"/>
	</g>
	<g>
		<path style="fill:#FFFFFF;" d="M334.578,4823.499h259.205c6.34-9.671,12.115-19.771,17.371-30.247H334.578V4823.499z"/>
	</g>
	<g>
		<path style="fill:#FFFFFF;" d="M334.578,4853.745h236.183c8.399-9.513,16.054-19.618,23.022-30.246H334.578V4853.745z"/>
	</g>
	<g>
		<path style="fill:#FFFFFF;" d="M334.578,4883.992h204.269c11.686-9.224,22.289-19.346,31.914-30.247H334.578V4883.992z"/>
	</g>
	<g>
		<path style="fill:#FFFFFF;" d="M334.578,4914.238h155.031c18.235-8.526,34.586-18.682,49.238-30.246H334.578V4914.238z"/>
	</g>
	<g>
		<path style="fill:#FFFFFF;" d="M334.578,4944.484c62.818,0,113.756-10.947,155.031-30.247H334.578V4944.484z"/>
	</g>
	<linearGradient id="SVGID_3_" gradientUnits="userSpaceOnUse" x1="334.5779" y1="3522.9062" x2="334.5779" y2="3492.6599">
		<stop  offset="0" style="stop-color:#FF3300"/>
		<stop  offset="1" style="stop-color:#E83304"/>
	</linearGradient>
	<path style="fill:url(#SVGID_3_);" d="M334.578,3492.66c-62.783,0-113.713,10.949-154.994,30.246h154.994h154.994
		C448.291,3503.609,397.361,3492.66,334.578,3492.66z"/>
	<linearGradient id="SVGID_4_" gradientUnits="userSpaceOnUse" x1="334.5779" y1="3553.1526" x2="334.5779" y2="3522.9062">
		<stop  offset="0" style="stop-color:#FF3300"/>
		<stop  offset="1" style="stop-color:#E83304"/>
	</linearGradient>
	<path style="fill:url(#SVGID_4_);" d="M489.572,3522.906H334.578H179.584c-11.001,9.224-26.769,19.436-49.26,30.246h204.254
		h204.254C516.341,3542.342,500.573,3532.13,489.572,3522.906z"/>
	<linearGradient id="SVGID_5_" gradientUnits="userSpaceOnUse" x1="334.5779" y1="3583.3989" x2="334.5779" y2="3553.1526">
		<stop  offset="0" style="stop-color:#FF3300"/>
		<stop  offset="1" style="stop-color:#E83304"/>
	</linearGradient>
	<path style="fill:url(#SVGID_5_);" d="M538.832,3553.153H334.578H130.324c-7.154,12.278-18.568,21.861-31.94,30.246h236.194
		h236.194C557.4,3575.014,545.986,3565.431,538.832,3553.153z"/>
	<linearGradient id="SVGID_6_" gradientUnits="userSpaceOnUse" x1="334.5779" y1="3613.6453" x2="334.5779" y2="3583.3989">
		<stop  offset="0" style="stop-color:#FF3300"/>
		<stop  offset="1" style="stop-color:#E83304"/>
	</linearGradient>
	<path style="fill:url(#SVGID_6_);" d="M570.772,3583.399H334.578H98.384c-4.376,11.869-12.64,21.623-23.044,30.246h259.238h259.238
		C583.412,3605.022,575.148,3595.268,570.772,3583.399z"/>
	<linearGradient id="SVGID_7_" gradientUnits="userSpaceOnUse" x1="334.5779" y1="3643.8916" x2="334.5779" y2="3613.6453">
		<stop  offset="0" style="stop-color:#FF3300"/>
		<stop  offset="1" style="stop-color:#E83304"/>
	</linearGradient>
	<path style="fill:url(#SVGID_7_);" d="M593.816,3613.645H334.578H75.34c-2.63,12.911-9.226,22.301-17.388,30.246h276.626h276.626
		C603.042,3635.946,596.446,3626.556,593.816,3613.645z"/>
	<linearGradient id="SVGID_8_" gradientUnits="userSpaceOnUse" x1="334.5779" y1="3674.1379" x2="334.5779" y2="3643.8916">
		<stop  offset="0" style="stop-color:#FF3300"/>
		<stop  offset="1" style="stop-color:#E83304"/>
	</linearGradient>
	<path style="fill:url(#SVGID_8_);" d="M611.204,3643.892H334.578H57.952c-1.241,11.491-6.144,21.38-13.408,30.246h290.033h290.033
		C617.347,3665.271,612.445,3655.383,611.204,3643.892z"/>
	<linearGradient id="SVGID_9_" gradientUnits="userSpaceOnUse" x1="334.5779" y1="3704.3843" x2="334.5779" y2="3674.1379">
		<stop  offset="0" style="stop-color:#FF3300"/>
		<stop  offset="1" style="stop-color:#E83304"/>
	</linearGradient>
	<path style="fill:url(#SVGID_9_);" d="M624.611,3674.138H334.578H44.544c0.696,10.444-2.93,20.518-10.435,30.246h300.468h300.468
		C627.541,3694.656,623.915,3684.582,624.611,3674.138z"/>
	<linearGradient id="SVGID_10_" gradientUnits="userSpaceOnUse" x1="334.5779" y1="3734.6306" x2="334.5779" y2="3704.3843">
		<stop  offset="0" style="stop-color:#FF3300"/>
		<stop  offset="1" style="stop-color:#E83304"/>
	</linearGradient>
	<path style="fill:url(#SVGID_10_);" d="M635.046,3704.384H334.578H34.11c0.434,9.44-2.03,19.503-8.111,30.246h308.579h308.579
		C637.076,3723.888,634.612,3713.824,635.046,3704.384z"/>
	<linearGradient id="SVGID_11_" gradientUnits="userSpaceOnUse" x1="334.5779" y1="3764.877" x2="334.5779" y2="3734.6306">
		<stop  offset="0" style="stop-color:#FF3300"/>
		<stop  offset="1" style="stop-color:#E83304"/>
	</linearGradient>
	<path style="fill:url(#SVGID_11_);" d="M643.157,3734.631H334.578H25.999c2.065,9.426,0.293,19.483-6.248,30.246h314.827h314.827
		C642.864,3754.113,641.092,3744.056,643.157,3734.631z"/>
	<linearGradient id="SVGID_12_" gradientUnits="userSpaceOnUse" x1="334.5779" y1="3795.1233" x2="334.5779" y2="3764.877">
		<stop  offset="0" style="stop-color:#FF3300"/>
		<stop  offset="1" style="stop-color:#E83304"/>
	</linearGradient>
	<path style="fill:url(#SVGID_12_);" d="M649.405,3764.877H334.578H19.751c1.542,8.861,0.433,18.8-4.722,30.246h319.549h319.549
		C648.971,3783.677,647.863,3773.738,649.405,3764.877z"/>
	<linearGradient id="SVGID_13_" gradientUnits="userSpaceOnUse" x1="334.5779" y1="3825.3696" x2="334.5779" y2="3795.1233">
		<stop  offset="0" style="stop-color:#FF3300"/>
		<stop  offset="1" style="stop-color:#E83304"/>
	</linearGradient>
	<path style="fill:url(#SVGID_13_);" d="M654.127,3795.123H334.578H15.029c3.112,9.911,2.04,20-3.463,30.246h323.012H657.59
		C652.087,3815.124,651.016,3805.034,654.127,3795.123z"/>
	<linearGradient id="SVGID_14_" gradientUnits="userSpaceOnUse" x1="334.5779" y1="3855.616" x2="334.5779" y2="3825.3696">
		<stop  offset="0" style="stop-color:#FF3300"/>
		<stop  offset="1" style="stop-color:#E83304"/>
	</linearGradient>
	<path style="fill:url(#SVGID_14_);" d="M659.887,3853.823c-4.588-9.569-5.851-19.067-2.297-28.453H334.578H11.566
		c3.553,9.386,2.291,18.885-2.297,28.453c-0.257,0.536-0.078,1.196-0.117,1.793h325.426h325.426
		C659.965,3855.019,660.144,3854.359,659.887,3853.823z"/>
	<linearGradient id="SVGID_15_" gradientUnits="userSpaceOnUse" x1="334.5779" y1="3885.8623" x2="334.5779" y2="3855.616">
		<stop  offset="0" style="stop-color:#FF3300"/>
		<stop  offset="1" style="stop-color:#E83304"/>
	</linearGradient>
	<path style="fill:url(#SVGID_15_);" d="M660.004,3855.616H334.578H9.152c4.169,9.65,2.595,19.745-1.794,30.246h327.22h327.22
		C657.408,3875.361,655.834,3865.266,660.004,3855.616z"/>
	<linearGradient id="SVGID_16_" gradientUnits="userSpaceOnUse" x1="334.5779" y1="3916.1086" x2="334.5779" y2="3885.8623">
		<stop  offset="0" style="stop-color:#FF3300"/>
		<stop  offset="1" style="stop-color:#E83304"/>
	</linearGradient>
	<path style="fill:url(#SVGID_16_);" d="M661.798,3885.862h-327.22H7.358c3.288,10.769,1.546,20.531-1.49,30.246h328.711h328.711
		C660.252,3906.393,658.51,3896.632,661.798,3885.862z"/>
	<linearGradient id="SVGID_17_" gradientUnits="userSpaceOnUse" x1="334.5779" y1="3946.355" x2="334.5779" y2="3916.1086">
		<stop  offset="0" style="stop-color:#FF3300"/>
		<stop  offset="1" style="stop-color:#E83304"/>
	</linearGradient>
	<path style="fill:url(#SVGID_17_);" d="M663.289,3916.109H334.578H5.867c2.519,9.335,1.775,19.483-1.252,30.246h329.962H664.54
		C661.513,3935.592,660.77,3925.444,663.289,3916.109z"/>
	<linearGradient id="SVGID_18_" gradientUnits="userSpaceOnUse" x1="334.5779" y1="3976.6013" x2="334.5779" y2="3946.355">
		<stop  offset="0" style="stop-color:#FF3300"/>
		<stop  offset="1" style="stop-color:#E83304"/>
	</linearGradient>
	<path style="fill:url(#SVGID_18_);" d="M664.54,3946.355H334.578H4.615c4.584,10.866,2.859,20.681-1.056,30.246h331.018h331.018
		C661.681,3967.036,659.956,3957.221,664.54,3946.355z"/>
	<linearGradient id="SVGID_19_" gradientUnits="userSpaceOnUse" x1="334.5779" y1="4006.8477" x2="334.5779" y2="3976.6013">
		<stop  offset="0" style="stop-color:#FF3300"/>
		<stop  offset="1" style="stop-color:#E83304"/>
	</linearGradient>
	<path style="fill:url(#SVGID_19_);" d="M665.596,3976.601H334.578H3.56c3.773,10.9,2.521,20.76-0.887,30.246h331.905h331.905
		C663.075,3997.361,661.823,3987.501,665.596,3976.601z"/>
	<linearGradient id="SVGID_20_" gradientUnits="userSpaceOnUse" x1="334.5779" y1="4037.094" x2="334.5779" y2="4006.8477">
		<stop  offset="0" style="stop-color:#FF3300"/>
		<stop  offset="1" style="stop-color:#E83304"/>
	</linearGradient>
	<path style="fill:url(#SVGID_20_);" d="M666.483,4006.848H334.578H2.673c3.432,14.208,1.78,22.677-0.74,30.246h332.645h332.645
		C664.703,4029.525,663.051,4021.056,666.483,4006.848z"/>
	<linearGradient id="SVGID_21_" gradientUnits="userSpaceOnUse" x1="334.5779" y1="4067.3403" x2="334.5779" y2="4037.094">
		<stop  offset="0" style="stop-color:#FF3300"/>
		<stop  offset="1" style="stop-color:#E83304"/>
	</linearGradient>
	<path style="fill:url(#SVGID_21_);" d="M667.223,4037.094H334.578H1.933c4.039,11.669,3.256,21.526-0.607,30.246h333.251h333.251
		C663.967,4058.62,663.183,4048.763,667.223,4037.094z"/>
	<linearGradient id="SVGID_22_" gradientUnits="userSpaceOnUse" x1="334.5779" y1="4097.5869" x2="334.5779" y2="4067.3403">
		<stop  offset="0" style="stop-color:#FF3300"/>
		<stop  offset="1" style="stop-color:#E83304"/>
	</linearGradient>
	<path style="fill:url(#SVGID_22_);" d="M667.829,4067.34H334.578H1.326c4.63,10.972,3.36,20.835-0.484,30.247h333.736h333.736
		C664.469,4088.176,663.199,4078.312,667.829,4067.34z"/>
	<linearGradient id="SVGID_23_" gradientUnits="userSpaceOnUse" x1="334.5779" y1="4127.833" x2="334.5779" y2="4097.5869">
		<stop  offset="0" style="stop-color:#FF3300"/>
		<stop  offset="1" style="stop-color:#E83304"/>
	</linearGradient>
	<path style="fill:url(#SVGID_23_);" d="M668.314,4097.587H334.578H0.842c4.286,11.038,2.9,20.834-0.37,30.246h334.106h334.106
		C665.414,4118.421,664.028,4108.625,668.314,4097.587z"/>
	<linearGradient id="SVGID_24_" gradientUnits="userSpaceOnUse" x1="334.5779" y1="4158.0796" x2="334.5779" y2="4127.833">
		<stop  offset="0" style="stop-color:#FF3300"/>
		<stop  offset="1" style="stop-color:#E83304"/>
	</linearGradient>
	<path style="fill:url(#SVGID_24_);" d="M668.684,4127.833H334.578H0.472c3.362,10.528,2.444,20.498-0.262,30.247h334.367h334.367
		C666.24,4148.331,665.322,4138.361,668.684,4127.833z"/>
	<linearGradient id="SVGID_25_" gradientUnits="userSpaceOnUse" x1="334.5779" y1="4188.3257" x2="334.5779" y2="4158.0796">
		<stop  offset="0" style="stop-color:#FF3300"/>
		<stop  offset="1" style="stop-color:#E83304"/>
	</linearGradient>
	<path style="fill:url(#SVGID_25_);" d="M668.945,4158.08H334.578H0.21c3.77,10.561,2.716,20.516-0.157,30.246h334.524h334.524
		C666.229,4178.596,665.175,4168.64,668.945,4158.08z"/>
	<linearGradient id="SVGID_26_" gradientUnits="userSpaceOnUse" x1="334.5779" y1="4218.5723" x2="334.5779" y2="4188.3257">
		<stop  offset="0" style="stop-color:#FF3300"/>
		<stop  offset="1" style="stop-color:#E83304"/>
	</linearGradient>
	<path style="fill:url(#SVGID_26_);" d="M669.102,4188.326H334.578H0.053c4.181,11.136,2.716,20.859-0.053,30.247h334.578h334.578
		C666.386,4209.185,664.921,4199.461,669.102,4188.326z"/>
	<linearGradient id="SVGID_27_" gradientUnits="userSpaceOnUse" x1="334.5779" y1="4248.8184" x2="334.5779" y2="4218.5723">
		<stop  offset="0" style="stop-color:#FF3300"/>
		<stop  offset="1" style="stop-color:#E83304"/>
	</linearGradient>
	<path style="fill:url(#SVGID_27_);" d="M669.156,4218.572H334.578H0c3.969,10.092,3.049,20.179,0.048,30.246h334.53h334.53
		C666.106,4238.751,665.187,4228.664,669.156,4218.572z"/>
	<linearGradient id="SVGID_28_" gradientUnits="userSpaceOnUse" x1="334.5779" y1="4279.0649" x2="334.5779" y2="4248.8184">
		<stop  offset="0" style="stop-color:#FF3300"/>
		<stop  offset="1" style="stop-color:#E83304"/>
	</linearGradient>
	<path style="fill:url(#SVGID_28_);" d="M669.108,4248.818h-334.53H0.048c3.834,10.109,3.038,20.197,0.15,30.247h334.379h334.379
		C666.07,4269.015,665.274,4258.928,669.108,4248.818z"/>
	<linearGradient id="SVGID_29_" gradientUnits="userSpaceOnUse" x1="334.5779" y1="4309.311" x2="334.5779" y2="4279.0649">
		<stop  offset="0" style="stop-color:#FF3300"/>
		<stop  offset="1" style="stop-color:#E83304"/>
	</linearGradient>
	<path style="fill:url(#SVGID_29_);" d="M668.957,4279.065H334.578H0.198c3.619,10.126,2.839,20.215,0.255,30.246h334.124h334.124
		C666.118,4299.28,665.338,4289.191,668.957,4279.065z"/>
	<linearGradient id="SVGID_30_" gradientUnits="userSpaceOnUse" x1="334.5779" y1="4339.5576" x2="334.5779" y2="4309.311">
		<stop  offset="0" style="stop-color:#FF3300"/>
		<stop  offset="1" style="stop-color:#E83304"/>
	</linearGradient>
	<path style="fill:url(#SVGID_30_);" d="M668.702,4309.311H334.578H0.454c4.416,12.502,3.692,22.129,0.365,30.247h333.76h333.76
		C665.01,4331.44,664.287,4321.813,668.702,4309.311z"/>
	<linearGradient id="SVGID_31_" gradientUnits="userSpaceOnUse" x1="334.5779" y1="4369.8037" x2="334.5779" y2="4339.5576">
		<stop  offset="0" style="stop-color:#FF3300"/>
		<stop  offset="1" style="stop-color:#E83304"/>
	</linearGradient>
	<path style="fill:url(#SVGID_31_);" d="M668.338,4339.558h-333.76H0.818c4.14,10.185,3.031,20.268,0.479,30.246h333.281h333.281
		C665.306,4359.826,664.198,4349.742,668.338,4339.558z"/>
	<linearGradient id="SVGID_32_" gradientUnits="userSpaceOnUse" x1="334.5779" y1="4400.0503" x2="334.5779" y2="4369.8037">
		<stop  offset="0" style="stop-color:#FF3300"/>
		<stop  offset="1" style="stop-color:#E83304"/>
	</linearGradient>
	<path style="fill:url(#SVGID_32_);" d="M667.858,4369.804H334.578H1.297c4.876,10.199,3.793,20.287,0.602,30.247h332.679h332.679
		C664.065,4390.09,662.982,4380.003,667.858,4369.804z"/>
	<linearGradient id="SVGID_33_" gradientUnits="userSpaceOnUse" x1="334.5779" y1="4430.2964" x2="334.5779" y2="4400.0503">
		<stop  offset="0" style="stop-color:#FF3300"/>
		<stop  offset="1" style="stop-color:#E83304"/>
	</linearGradient>
	<path style="fill:url(#SVGID_33_);" d="M667.257,4400.05H334.578H1.899c3.632,8.316,3.342,18.707,0.735,30.246h331.944h331.944
		C663.915,4418.757,663.625,4408.367,667.257,4400.05z"/>
	<linearGradient id="SVGID_34_" gradientUnits="userSpaceOnUse" x1="334.5779" y1="4460.543" x2="334.5779" y2="4430.2964">
		<stop  offset="0" style="stop-color:#FF3300"/>
		<stop  offset="1" style="stop-color:#E83304"/>
	</linearGradient>
	<path style="fill:url(#SVGID_34_);" d="M666.522,4430.296H334.578H2.634c4.894,10.804,3.594,20.703,0.885,30.247h331.058h331.058
		C662.927,4450.999,661.627,4441.101,666.522,4430.296z"/>
	<linearGradient id="SVGID_35_" gradientUnits="userSpaceOnUse" x1="334.5779" y1="4490.7891" x2="334.5779" y2="4460.543">
		<stop  offset="0" style="stop-color:#FF3300"/>
		<stop  offset="1" style="stop-color:#E83304"/>
	</linearGradient>
	<path style="fill:url(#SVGID_35_);" d="M665.636,4460.543H334.578H3.52c5.2,8.822,4.742,19.16,1.055,30.246h330.003h330.003
		C660.894,4479.703,660.437,4469.365,665.636,4460.543z"/>
	<linearGradient id="SVGID_36_" gradientUnits="userSpaceOnUse" x1="334.5779" y1="4521.0356" x2="334.5779" y2="4490.7891">
		<stop  offset="0" style="stop-color:#FF3300"/>
		<stop  offset="1" style="stop-color:#E83304"/>
	</linearGradient>
	<path style="fill:url(#SVGID_36_);" d="M664.581,4490.789H334.578H4.574c3.928,9.862,3.301,20.098,1.256,30.247h328.747h328.747
		C661.281,4510.887,660.653,4500.651,664.581,4490.789z"/>
	<linearGradient id="SVGID_37_" gradientUnits="userSpaceOnUse" x1="334.5779" y1="4551.2817" x2="334.5779" y2="4521.0356">
		<stop  offset="0" style="stop-color:#FF3300"/>
		<stop  offset="1" style="stop-color:#E83304"/>
	</linearGradient>
	<path style="fill:url(#SVGID_37_);" d="M663.325,4521.036H334.578H5.831c4.29,9.009,4.22,19.317,1.501,30.246h327.246h327.246
		C659.104,4540.353,659.035,4530.045,663.325,4521.036z"/>
	<linearGradient id="SVGID_38_" gradientUnits="userSpaceOnUse" x1="334.5779" y1="4581.5283" x2="334.5779" y2="4551.2817">
		<stop  offset="0" style="stop-color:#FF3300"/>
		<stop  offset="1" style="stop-color:#E83304"/>
	</linearGradient>
	<path style="fill:url(#SVGID_38_);" d="M661.824,4551.282H334.578H7.332c5.916,9.538,5.194,19.879,1.818,30.247h325.428h325.428
		C656.63,4571.161,655.908,4560.819,661.824,4551.282z"/>
	<linearGradient id="SVGID_39_" gradientUnits="userSpaceOnUse" x1="334.5779" y1="4611.7744" x2="334.5779" y2="4581.5283">
		<stop  offset="0" style="stop-color:#FF3300"/>
		<stop  offset="1" style="stop-color:#E83304"/>
	</linearGradient>
	<path style="fill:url(#SVGID_39_);" d="M660.006,4581.528H334.578H9.15c0.04,0.597-0.193,1.287,0.119,1.793
		c5.238,8.508,4.915,18.239,2.327,28.453h322.983h322.983c-2.588-10.214-2.911-19.945,2.327-28.453
		C660.199,4582.815,659.966,4582.125,660.006,4581.528z"/>
	<linearGradient id="SVGID_40_" gradientUnits="userSpaceOnUse" x1="334.5779" y1="4642.021" x2="334.5779" y2="4611.7744">
		<stop  offset="0" style="stop-color:#FF3300"/>
		<stop  offset="1" style="stop-color:#E83304"/>
	</linearGradient>
	<path style="fill:url(#SVGID_40_);" d="M657.561,4611.774H334.578H11.595c3.581,7.946,4.638,18.12,3.485,30.247h319.498h319.498
		C652.923,4629.894,653.979,4619.721,657.561,4611.774z"/>
	<linearGradient id="SVGID_41_" gradientUnits="userSpaceOnUse" x1="334.5779" y1="4672.2671" x2="334.5779" y2="4642.021">
		<stop  offset="0" style="stop-color:#FF3300"/>
		<stop  offset="1" style="stop-color:#E83304"/>
	</linearGradient>
	<path style="fill:url(#SVGID_41_);" d="M654.076,4642.021H334.578H15.08c5.094,7.855,6.29,18.18,4.737,30.246h314.761h314.761
		C647.785,4660.201,648.982,4649.876,654.076,4642.021z"/>
	<linearGradient id="SVGID_42_" gradientUnits="userSpaceOnUse" x1="334.5779" y1="4702.5137" x2="334.5779" y2="4672.2671">
		<stop  offset="0" style="stop-color:#FF3300"/>
		<stop  offset="1" style="stop-color:#E83304"/>
	</linearGradient>
	<path style="fill:url(#SVGID_42_);" d="M649.339,4672.267H334.578H19.817c6.307,8.075,8.333,18.192,6.254,30.247h308.507h308.507
		C641.006,4690.459,643.032,4680.342,649.339,4672.267z"/>
	<linearGradient id="SVGID_43_" gradientUnits="userSpaceOnUse" x1="334.5779" y1="4732.7598" x2="334.5779" y2="4702.5137">
		<stop  offset="0" style="stop-color:#FF3300"/>
		<stop  offset="1" style="stop-color:#E83304"/>
	</linearGradient>
	<path style="fill:url(#SVGID_43_);" d="M643.085,4702.514H334.578H26.071c6.421,8.309,8.736,18.586,8.11,30.246h300.397h300.397
		C634.35,4721.1,636.664,4710.822,643.085,4702.514z"/>
	<linearGradient id="SVGID_44_" gradientUnits="userSpaceOnUse" x1="334.5779" y1="4763.0063" x2="334.5779" y2="4732.7598">
		<stop  offset="0" style="stop-color:#FF3300"/>
		<stop  offset="1" style="stop-color:#E83304"/>
	</linearGradient>
	<path style="fill:url(#SVGID_44_);" d="M334.578,4732.76H34.181c7.599,8.197,10.522,18.548,10.427,30.247h289.969h289.969
		c-0.094-11.698,2.828-22.049,10.427-30.247H334.578z"/>
	<linearGradient id="SVGID_45_" gradientUnits="userSpaceOnUse" x1="334.5779" y1="4793.2524" x2="334.5779" y2="4763.0063">
		<stop  offset="0" style="stop-color:#FF3300"/>
		<stop  offset="1" style="stop-color:#E83304"/>
	</linearGradient>
	<path style="fill:url(#SVGID_45_);" d="M334.578,4763.006H44.608c8.74,10.167,12.368,20.302,13.394,30.246h276.576h276.576
		c1.025-9.944,4.653-20.08,13.394-30.246H334.578z"/>
	<linearGradient id="SVGID_46_" gradientUnits="userSpaceOnUse" x1="334.5779" y1="4823.499" x2="334.5779" y2="4793.2524">
		<stop  offset="0" style="stop-color:#FF3300"/>
		<stop  offset="1" style="stop-color:#E83304"/>
	</linearGradient>
	<path style="fill:url(#SVGID_46_);" d="M334.578,4793.252H58.002c10.087,8.043,15.579,18.286,17.371,30.247h259.205h259.205
		c1.792-11.961,7.284-22.204,17.371-30.247H334.578z"/>
	<linearGradient id="SVGID_47_" gradientUnits="userSpaceOnUse" x1="334.5779" y1="4853.7451" x2="334.5779" y2="4823.499">
		<stop  offset="0" style="stop-color:#FF3300"/>
		<stop  offset="1" style="stop-color:#E83304"/>
	</linearGradient>
	<path style="fill:url(#SVGID_47_);" d="M334.578,4823.499H75.373c11.953,8.263,19.237,18.544,23.022,30.246h236.183h236.183
		c3.785-11.702,11.068-21.983,23.022-30.246H334.578z"/>
	<linearGradient id="SVGID_48_" gradientUnits="userSpaceOnUse" x1="334.5779" y1="4883.9917" x2="334.5779" y2="4853.7451">
		<stop  offset="0" style="stop-color:#FF3300"/>
		<stop  offset="1" style="stop-color:#E83304"/>
	</linearGradient>
	<path style="fill:url(#SVGID_48_);" d="M334.578,4853.745H98.395c14.948,7.88,25.21,18.195,31.914,30.247h204.269h204.269
		c6.704-12.051,16.967-22.367,31.914-30.247H334.578z"/>
	<linearGradient id="SVGID_49_" gradientUnits="userSpaceOnUse" x1="334.5779" y1="4914.2378" x2="334.5779" y2="4883.9917">
		<stop  offset="0" style="stop-color:#FF3300"/>
		<stop  offset="1" style="stop-color:#E83304"/>
	</linearGradient>
	<path style="fill:url(#SVGID_49_);" d="M334.578,4883.992H130.309c21.513,8.478,36.225,19.37,49.238,30.246h155.031h155.031
		c13.013-10.876,27.725-21.769,49.238-30.246H334.578z"/>
	<linearGradient id="SVGID_50_" gradientUnits="userSpaceOnUse" x1="334.5779" y1="4944.4844" x2="334.5779" y2="4914.2378">
		<stop  offset="0" style="stop-color:#FF3300"/>
		<stop  offset="1" style="stop-color:#E83304"/>
	</linearGradient>
	<path style="fill:url(#SVGID_50_);" d="M334.578,4914.238H179.547c41.274,19.299,92.213,30.247,155.031,30.247
		s113.756-10.947,155.031-30.247H334.578z"/>
</g>
<g id="LIGHT_1_" style="opacity:0.6;">
	
		<radialGradient id="SVGID_51_" cx="334.5779" cy="4218.5723" r="401.3988" gradientTransform="matrix(1 0 0 2.0824 0 -4566.0381)" gradientUnits="userSpaceOnUse">
		<stop  offset="0" style="stop-color:#FFCC66"/>
		<stop  offset="1" style="stop-color:#FFCC99;stop-opacity:0"/>
	</radialGradient>
	<path style="fill:url(#SVGID_51_);" d="M669.102,4188.326c-0.035-10.104-0.088-20.191-0.157-30.246
		c-0.07-10.123-0.157-20.21-0.262-30.247c-0.105-10.142-0.229-20.229-0.37-30.246c-0.143-10.163-0.305-20.251-0.484-30.247
		c-0.183-10.186-0.385-20.275-0.607-30.246c-0.227-10.213-0.473-20.302-0.74-30.246c-0.275-10.245-0.57-20.335-0.887-30.246
		c-0.329-10.284-0.681-20.375-1.056-30.246c-0.392-10.333-0.809-20.427-1.252-30.246c-0.469-10.4-0.966-20.494-1.49-30.246
		c-0.565-10.497-1.164-20.59-1.794-30.246c-0.039-0.597,0.14-1.257-0.117-1.793c-0.629-9.515-1.39-19.006-2.297-28.453
		c-0.974-10.144-2.121-20.235-3.463-30.246c-1.364-10.175-2.929-20.267-4.722-30.246c-1.835-10.211-3.909-20.304-6.248-30.246
		c-2.412-10.254-5.105-20.347-8.111-30.246c-3.129-10.307-6.597-20.402-10.435-30.246c-4.045-10.375-8.499-20.474-13.408-30.246
		c-5.261-10.474-11.041-20.575-17.388-30.246c-6.974-10.628-14.637-20.733-23.044-30.246c-9.633-10.9-20.246-21.022-31.94-30.246
		c-14.661-11.564-31.019-21.719-49.26-30.246c-41.281-19.297-92.211-30.246-154.994-30.246s-113.713,10.949-154.994,30.246
		c-11.001,9.224-26.769,19.436-49.26,30.246c-7.154,12.278-18.568,21.861-31.94,30.246c-4.376,11.869-12.64,21.623-23.044,30.246
		c-2.63,12.911-9.226,22.301-17.388,30.246c-1.241,11.491-6.144,21.38-13.408,30.246c0.696,10.444-2.93,20.518-10.435,30.246
		c0.434,9.44-2.03,19.503-8.111,30.246c2.065,9.426,0.293,19.483-6.248,30.246c1.542,8.861,0.433,18.8-4.722,30.246
		c3.112,9.911,2.04,20-3.463,30.246c3.553,9.386,2.291,18.885-2.297,28.453c-0.257,0.536-0.078,1.196-0.117,1.793
		c4.169,9.65,2.595,19.745-1.794,30.246c3.288,10.769,1.546,20.531-1.49,30.246c2.519,9.335,1.775,19.483-1.252,30.246
		c4.584,10.866,2.859,20.681-1.056,30.246c3.773,10.9,2.521,20.76-0.887,30.246c3.432,14.208,1.78,22.677-0.74,30.246
		c4.039,11.669,3.256,21.526-0.607,30.246c4.63,10.972,3.36,20.835-0.484,30.247c4.286,11.038,2.9,20.834-0.37,30.246
		c3.362,10.528,2.444,20.498-0.262,30.247c3.77,10.561,2.716,20.516-0.157,30.246c4.181,11.136,2.716,20.859-0.053,30.247
		c3.969,10.092,3.049,20.179,0.048,30.246c3.834,10.109,3.038,20.197,0.15,30.247c3.619,10.126,2.839,20.215,0.255,30.246
		c4.416,12.502,3.692,22.129,0.365,30.247c4.14,10.185,3.031,20.268,0.479,30.246c4.876,10.199,3.793,20.287,0.602,30.247
		c3.632,8.316,3.342,18.707,0.735,30.246c4.894,10.804,3.594,20.703,0.885,30.247c5.2,8.822,4.742,19.16,1.055,30.246
		c3.928,9.862,3.301,20.098,1.256,30.247c4.29,9.009,4.22,19.317,1.501,30.246c5.916,9.538,5.194,19.879,1.818,30.247
		c0.04,0.597-0.193,1.287,0.119,1.793c5.238,8.508,4.915,18.239,2.327,28.453c3.581,7.946,4.638,18.12,3.485,30.247
		c5.094,7.855,6.29,18.18,4.737,30.246c6.307,8.075,8.333,18.192,6.254,30.247c6.421,8.309,8.736,18.586,8.11,30.246
		c7.599,8.197,10.522,18.548,10.427,30.247c8.74,10.167,12.368,20.302,13.394,30.246c10.087,8.043,15.579,18.286,17.371,30.247
		c11.953,8.263,19.237,18.544,23.022,30.246c14.948,7.88,25.21,18.195,31.914,30.247c21.513,8.478,36.225,19.37,49.238,30.246
		c41.274,19.299,92.213,30.247,155.031,30.247s113.756-10.947,155.031-30.247c18.235-8.526,34.586-18.682,49.238-30.246
		c11.686-9.224,22.289-19.346,31.914-30.247c8.399-9.513,16.054-19.618,23.022-30.246c6.34-9.671,12.115-19.771,17.371-30.247
		c4.903-9.771,9.352-19.87,13.394-30.246c3.834-9.844,7.3-19.939,10.427-30.247c3.004-9.898,5.698-19.992,8.11-30.246
		c2.339-9.942,4.415-20.034,6.254-30.247c1.797-9.978,3.366-20.07,4.737-30.246c1.348-10.01,2.501-20.102,3.485-30.247
		c0.916-9.446,1.687-18.938,2.327-28.453c0.312-0.506,0.079-1.196,0.119-1.793c0.639-9.622,1.245-19.717,1.818-30.247
		c0.529-9.728,1.029-19.825,1.501-30.246c0.444-9.805,0.863-19.896,1.256-30.247c0.375-9.858,0.726-19.951,1.055-30.246
		c0.316-9.903,0.612-19.99,0.885-30.247c0.265-9.935,0.51-20.026,0.735-30.246c0.219-9.964,0.42-20.054,0.602-30.247
		c0.178-9.989,0.338-20.078,0.479-30.246c0.139-10.012,0.261-20.1,0.365-30.247c0.103-10.031,0.187-20.12,0.255-30.246
		c0.067-10.05,0.117-20.138,0.15-30.247c0.033-10.068,0.049-20.156,0.048-30.246
		C669.155,4208.486,669.137,4198.398,669.102,4188.326z"/>
</g>
<path id="ARRETE_GAUCHE_1_" style="opacity:0.3;fill:#990000;" d="M334.578,4944.484c-53.881,0-92.952-11.442-119.793-25.774
	c-35.559-18.987-78.25-45.026-101.24-81.354c-37.823-59.766-62.805-142.743-68.143-253.674
	c-9.192-191.039-9.192-552.75,0.001-730.247c5.754-111.084,31.814-194.016,69.387-253.532
	c22.955-36.363,64.111-63.354,100.082-81.425c14.579-7.324,65.837-25.818,119.706-25.818l0,0c-51.374,0-95.996,17.44-132.629,37.044
	c-33.175,17.753-60.923,44.066-82.476,78.206C83.31,3665.195,63,3745.761,57.384,3854.21c-9.174,177.119-9.173,538.088,0.001,728.75
	c5.21,108.27,25.437,188.859,61.835,246.373c21.585,34.107,49.386,60.398,82.629,78.144
	C238.53,4927.057,283.187,4944.484,334.578,4944.484L334.578,4944.484z"/>
<path id="ARRETE_CENTRE" style="opacity:0.3;fill:#990000;" d="M334.578,4944.484c-16.443,0-30.301-4.169-41.188-27.184
	c-9.118-19.272-16.38-46.348-22.2-82.772c-9.43-59.005-19.663-141.146-20.999-251.116c-2.321-190.896-2.321-552.33,0-729.688
	c1.439-110.134,11.693-192.236,21.062-250.999c5.812-36.458,13.06-63.553,22.158-82.835c10.874-23.045,24.726-27.23,41.168-27.23
	l0,0c-14.501,0-34.689,25.704-48.514,112.427c-9.252,58.039-14.445,139.433-15.876,248.834c-2.319,177.262-2.319,538.509,0,729.31
	c1.328,109.23,6.5,190.656,15.812,248.932C299.846,4918.799,320.059,4944.484,334.578,4944.484L334.578,4944.484z"/>
<path id="ARRETE_DROITE_1_" style="opacity:0.3;fill:#990000;" d="M334.578,4944.484L334.578,4944.484
	c36.581,0,68.369-17.234,94.482-36.434c23.939-17.601,44.01-43.789,59.652-77.837c26.521-57.721,41.256-138.565,45.05-247.154
	c6.662-190.705,6.662-551.776,0-728.955c-4.089-108.765-18.886-189.583-45.233-247.073c-15.62-34.083-35.654-60.293-59.544-77.903
	c-26.077-19.222-57.84-36.468-94.407-36.468l0,0c39.839,0,64.597,3.231,93.307,24.394c25.962,19.137,52.588,47.307,69.28,83.728
	c27.184,59.313,47.423,141.991,51.588,252.76c6.672,177.453,6.672,539.062,0,730.042c-3.863,110.611-22.67,193.984-51.409,252.894
	C464.18,4904.454,410.683,4944.484,334.578,4944.484z"/>
<g id="SHADOW_1_" style="opacity:0.3;">
	<linearGradient id="SVGID_52_" gradientUnits="userSpaceOnUse" x1="0" y1="4218.5723" x2="669.1558" y2="4218.5723">
		<stop  offset="0.1036" style="stop-color:#660000"/>
		<stop  offset="0.5195" style="stop-color:#990000;stop-opacity:0"/>
	</linearGradient>
	<path style="fill:url(#SVGID_52_);" d="M669.102,4188.326c-0.035-10.104-0.088-20.191-0.157-30.246
		c-0.07-10.123-0.157-20.21-0.262-30.247c-0.105-10.142-0.229-20.229-0.37-30.246c-0.143-10.163-0.305-20.251-0.484-30.247
		c-0.183-10.186-0.385-20.275-0.607-30.246c-0.227-10.213-0.473-20.302-0.74-30.246c-0.275-10.245-0.57-20.335-0.887-30.246
		c-0.329-10.284-0.681-20.375-1.056-30.246c-0.392-10.333-0.809-20.427-1.252-30.246c-0.469-10.4-0.966-20.494-1.49-30.246
		c-0.565-10.497-1.164-20.59-1.794-30.246c-0.039-0.597,0.14-1.257-0.117-1.793c-0.629-9.515-1.39-19.006-2.297-28.453
		c-0.974-10.144-2.121-20.235-3.463-30.246c-1.364-10.175-2.929-20.267-4.722-30.246c-1.835-10.211-3.909-20.304-6.248-30.246
		c-2.412-10.254-5.105-20.347-8.111-30.246c-3.129-10.307-6.597-20.402-10.435-30.246c-4.045-10.375-8.499-20.474-13.408-30.246
		c-5.261-10.474-11.041-20.575-17.388-30.246c-6.974-10.628-14.637-20.733-23.044-30.246c-9.633-10.9-20.246-21.022-31.94-30.246
		c-14.661-11.564-31.019-21.719-49.26-30.246c-41.281-19.297-92.211-30.246-154.994-30.246s-113.713,10.949-154.994,30.246
		c-11.001,9.224-26.769,19.436-49.26,30.246c-7.154,12.278-18.568,21.861-31.94,30.246c-4.376,11.869-12.64,21.623-23.044,30.246
		c-2.63,12.911-9.226,22.301-17.388,30.246c-1.241,11.491-6.144,21.38-13.408,30.246c0.696,10.444-2.93,20.518-10.435,30.246
		c0.434,9.44-2.03,19.503-8.111,30.246c2.065,9.426,0.293,19.483-6.248,30.246c1.542,8.861,0.433,18.8-4.722,30.246
		c3.112,9.911,2.04,20-3.463,30.246c3.553,9.386,2.291,18.885-2.297,28.453c-0.257,0.536-0.078,1.196-0.117,1.793
		c4.169,9.65,2.595,19.745-1.794,30.246c3.288,10.769,1.546,20.531-1.49,30.246c2.519,9.335,1.775,19.483-1.252,30.246
		c4.584,10.866,2.859,20.681-1.056,30.246c3.773,10.9,2.521,20.76-0.887,30.246c3.432,14.208,1.78,22.677-0.74,30.246
		c4.039,11.669,3.256,21.526-0.607,30.246c4.63,10.972,3.36,20.835-0.484,30.247c4.286,11.038,2.9,20.834-0.37,30.246
		c3.362,10.528,2.444,20.498-0.262,30.247c3.77,10.561,2.716,20.516-0.157,30.246c4.181,11.136,2.716,20.859-0.053,30.247
		c3.969,10.092,3.049,20.179,0.048,30.246c3.834,10.109,3.038,20.197,0.15,30.247c3.619,10.126,2.839,20.215,0.255,30.246
		c4.416,12.502,3.692,22.129,0.365,30.247c4.14,10.185,3.031,20.268,0.479,30.246c4.876,10.199,3.793,20.287,0.602,30.247
		c3.632,8.316,3.342,18.707,0.735,30.246c4.894,10.804,3.594,20.703,0.885,30.247c5.2,8.822,4.742,19.16,1.055,30.246
		c3.928,9.862,3.301,20.098,1.256,30.247c4.29,9.009,4.22,19.317,1.501,30.246c5.916,9.538,5.194,19.879,1.818,30.247
		c0.04,0.597-0.193,1.287,0.119,1.793c5.238,8.508,4.915,18.239,2.327,28.453c3.581,7.946,4.638,18.12,3.485,30.247
		c5.094,7.855,6.29,18.18,4.737,30.246c6.307,8.075,8.333,18.192,6.254,30.247c6.421,8.309,8.736,18.586,8.11,30.246
		c7.599,8.197,10.522,18.548,10.427,30.247c8.74,10.167,12.368,20.302,13.394,30.246c10.087,8.043,15.579,18.286,17.371,30.247
		c11.953,8.263,19.237,18.544,23.022,30.246c14.948,7.88,25.21,18.195,31.914,30.247c21.513,8.478,36.225,19.37,49.238,30.246
		c41.274,19.299,92.213,30.247,155.031,30.247s113.756-10.947,155.031-30.247c18.235-8.526,34.586-18.682,49.238-30.246
		c11.686-9.224,22.289-19.346,31.914-30.247c8.399-9.513,16.054-19.618,23.022-30.246c6.34-9.671,12.115-19.771,17.371-30.247
		c4.903-9.771,9.352-19.87,13.394-30.246c3.834-9.844,7.3-19.939,10.427-30.247c3.004-9.898,5.698-19.992,8.11-30.246
		c2.339-9.942,4.415-20.034,6.254-30.247c1.797-9.978,3.366-20.07,4.737-30.246c1.348-10.01,2.501-20.102,3.485-30.247
		c0.916-9.446,1.687-18.938,2.327-28.453c0.312-0.506,0.079-1.196,0.119-1.793c0.639-9.622,1.245-19.717,1.818-30.247
		c0.529-9.728,1.029-19.825,1.501-30.246c0.444-9.805,0.863-19.896,1.256-30.247c0.375-9.858,0.726-19.951,1.055-30.246
		c0.316-9.903,0.612-19.99,0.885-30.247c0.265-9.935,0.51-20.026,0.735-30.246c0.219-9.964,0.42-20.054,0.602-30.247
		c0.178-9.989,0.338-20.078,0.479-30.246c0.139-10.012,0.261-20.1,0.365-30.247c0.103-10.031,0.187-20.12,0.255-30.246
		c0.067-10.05,0.117-20.138,0.15-30.247c0.033-10.068,0.049-20.156,0.048-30.246
		C669.155,4208.486,669.137,4198.398,669.102,4188.326z"/>
</g>
</svg>
